<svg id="svg" version="1.1" xmlns="http://www.w3.org/2000/svg" xmlns:xlink="http://www.w3.org/1999/xlink" width="400" height="404.0816326530612" viewBox="0, 0, 400,404.0816326530612"><g id="svgg"><path id="path0" d="M193.656 32.459 C 192.250 32.864,189.381 34.528,189.140 35.080 C 189.063 35.256,188.190 36.053,187.200 36.852 C 186.210 37.651,182.250 41.509,178.400 45.427 C 174.550 49.345,170.410 53.462,169.200 54.575 C 165.375 58.095,157.753 65.982,157.004 67.194 C 156.698 67.688,159.447 72.465,160.325 72.967 C 160.678 73.168,161.907 74.248,163.055 75.367 C 164.203 76.485,165.381 77.614,165.671 77.876 C 165.962 78.137,167.370 79.654,168.800 81.247 C 170.230 82.839,171.912 84.605,172.538 85.171 C 173.721 86.242,178.842 91.326,182.742 95.302 C 183.984 96.569,185.315 97.706,185.700 97.829 C 186.085 97.953,186.400 98.229,186.400 98.443 C 186.400 98.658,188.065 100.480,190.100 102.494 L 193.800 106.154 197.400 106.036 C 209.797 105.627,214.888 107.160,220.717 113.058 C 221.881 114.236,222.973 115.200,223.143 115.200 C 223.313 115.200,223.862 115.928,224.361 116.817 C 224.861 117.706,225.664 118.831,226.146 119.317 C 227.059 120.238,227.736 122.155,228.216 125.185 C 228.372 126.166,228.641 127.246,228.814 127.585 C 229.581 129.082,230.125 132.819,229.705 133.705 C 227.137 139.119,227.717 140.543,235.676 148.369 C 242.357 154.937,245.061 157.626,245.844 158.480 C 246.308 158.986,247.118 159.780,247.644 160.244 C 248.170 160.708,248.985 161.518,249.455 162.044 C 249.926 162.570,251.006 163.653,251.855 164.450 C 252.705 165.248,254.270 166.868,255.334 168.050 C 256.397 169.233,257.387 170.330,257.534 170.489 C 262.995 176.418,265.807 177.761,271.561 177.188 C 276.171 176.730,281.516 177.682,285.092 179.598 C 285.915 180.039,286.869 180.400,287.212 180.400 C 287.555 180.400,288.523 181.126,289.365 182.014 C 290.206 182.902,291.368 183.878,291.947 184.184 C 292.526 184.489,293.360 185.233,293.800 185.838 C 294.240 186.443,295.275 187.758,296.100 188.761 C 296.925 189.764,297.600 190.721,297.600 190.887 C 297.600 191.052,298.137 192.061,298.794 193.129 C 300.529 195.948,302.889 196.498,307.200 195.086 C 312.593 193.320,315.477 192.988,318.435 193.794 C 319.846 194.178,321.900 194.710,323.000 194.977 C 325.867 195.672,330.797 197.866,330.799 198.448 C 330.800 198.585,332.408 199.199,334.374 199.814 C 336.450 200.463,338.493 201.397,339.251 202.043 C 341.075 203.600,342.174 203.706,356.679 203.713 C 371.637 203.721,371.334 203.788,371.803 200.380 C 372.380 196.181,371.750 193.400,369.767 191.388 C 368.795 190.402,368.000 189.445,368.000 189.260 C 368.000 188.982,366.970 187.824,362.879 183.505 C 362.726 183.343,358.190 178.811,352.800 173.434 C 347.410 168.057,342.765 163.419,342.477 163.129 C 341.493 162.134,330.795 151.401,330.497 151.109 C 329.515 150.146,298.527 119.188,298.200 118.842 C 297.980 118.610,295.550 116.243,292.800 113.584 C 290.050 110.924,287.620 108.571,287.400 108.354 C 287.180 108.138,271.015 91.950,251.479 72.381 C 231.942 52.811,215.779 36.800,215.562 36.800 C 215.344 36.800,214.285 35.977,213.209 34.970 C 210.322 32.269,199.255 30.848,193.656 32.459 M138.701 86.351 C 136.762 87.016,131.887 91.488,123.800 100.023 C 120.067 103.963,113.283 110.278,111.853 111.147 C 111.307 111.478,110.691 112.121,110.484 112.576 C 110.276 113.032,109.047 114.429,107.753 115.682 C 103.570 119.731,102.249 121.075,99.418 124.163 C 97.887 125.833,96.340 127.292,95.979 127.407 C 95.618 127.521,94.649 128.593,93.825 129.789 C 93.002 130.984,91.417 132.736,90.302 133.681 C 89.188 134.627,84.820 138.820,80.595 143.000 C 76.369 147.180,72.212 151.258,71.356 152.062 C 70.500 152.866,68.630 154.726,67.200 156.196 C 65.770 157.665,64.129 159.147,63.554 159.488 C 62.979 159.829,62.229 160.582,61.887 161.161 C 61.251 162.237,59.687 163.943,57.965 165.438 C 57.434 165.899,56.735 166.664,56.411 167.139 C 56.087 167.614,55.511 168.101,55.131 168.222 C 54.752 168.342,54.341 168.756,54.219 169.142 C 54.096 169.527,53.412 170.391,52.698 171.061 C 48.652 174.858,38.067 185.572,37.393 186.553 C 36.957 187.187,35.897 188.534,35.039 189.548 C 34.180 190.561,32.869 192.652,32.126 194.195 C 31.383 195.738,30.616 197.270,30.422 197.600 C 29.104 199.841,29.495 204.805,31.175 207.164 C 31.623 207.793,32.340 209.128,32.770 210.129 C 34.168 213.391,47.407 227.298,73.544 252.960 C 76.704 256.062,85.524 264.887,93.144 272.571 C 109.965 289.532,109.889 289.456,111.835 291.217 C 112.696 291.996,114.592 293.886,116.050 295.417 C 117.507 296.948,124.843 304.320,132.352 311.800 C 139.861 319.280,148.658 328.072,151.902 331.337 C 155.146 334.602,158.572 337.811,159.515 338.466 L 161.230 339.659 162.954 338.648 C 164.674 337.640,168.000 334.184,168.000 333.405 C 168.000 333.179,168.810 332.007,169.800 330.800 C 170.790 329.593,171.600 328.400,171.600 328.149 C 171.600 327.444,172.789 323.585,173.557 321.800 C 174.167 320.379,174.203 319.505,173.873 314.000 C 173.605 309.535,173.629 307.296,173.960 306.000 C 174.478 303.968,175.625 301.600,176.091 301.600 C 176.261 301.600,176.400 301.350,176.400 301.044 C 176.400 300.739,177.050 299.974,177.845 299.344 C 180.884 296.938,181.118 296.625,181.581 294.344 L 182.039 292.088 179.784 288.776 C 174.030 280.327,174.128 269.446,180.033 261.154 C 180.455 260.561,180.800 259.902,180.800 259.689 C 180.800 259.476,181.394 258.784,182.119 258.151 C 182.845 257.518,183.817 256.460,184.280 255.800 C 184.743 255.140,186.017 254.080,187.112 253.445 C 188.432 252.678,189.590 251.549,190.551 250.089 L 192.000 247.889 191.994 204.044 C 191.989 168.151,191.889 159.917,191.445 158.639 C 190.950 157.220,188.759 154.800,187.967 154.800 C 187.308 154.800,181.344 148.528,179.995 146.416 C 177.051 141.807,176.837 141.315,176.161 137.600 C 175.501 133.968,175.463 131.610,176.020 128.755 C 176.997 123.749,176.287 119.908,174.133 118.545 C 173.510 118.150,172.730 117.481,172.400 117.058 C 172.070 116.635,170.765 115.241,169.500 113.959 C 168.235 112.678,167.200 111.471,167.200 111.278 C 167.200 111.084,166.587 110.596,165.837 110.192 C 165.088 109.788,164.233 109.094,163.937 108.649 C 163.642 108.204,162.980 107.471,162.466 107.020 C 161.952 106.569,160.962 105.578,160.266 104.817 C 159.570 104.056,158.295 102.796,157.433 102.017 C 156.571 101.238,155.491 100.169,155.033 99.643 C 154.575 99.116,153.961 98.486,153.670 98.243 C 153.029 97.708,148.342 93.370,147.852 92.859 C 147.661 92.659,146.430 91.349,145.117 89.948 C 141.240 85.811,141.026 85.598,140.808 85.650 C 140.694 85.677,139.745 85.993,138.701 86.351 M216.902 163.590 C 214.759 164.099,214.288 164.718,214.627 166.578 C 214.789 167.470,214.971 186.174,215.029 208.142 C 215.145 251.463,215.115 250.873,217.310 252.551 C 219.634 254.328,224.073 258.975,224.792 260.384 C 225.204 261.192,225.828 262.091,226.178 262.382 C 227.052 263.107,227.881 265.015,228.361 267.400 C 228.582 268.500,228.955 270.210,229.190 271.200 C 230.056 274.853,230.067 275.806,229.273 278.800 C 228.835 280.450,228.350 282.592,228.194 283.559 C 227.821 285.869,226.986 287.819,226.089 288.473 C 224.394 289.710,221.657 295.329,222.139 296.584 C 222.778 298.249,228.359 298.085,229.419 296.370 C 231.199 293.490,241.819 293.383,244.652 296.216 C 245.155 296.719,246.294 297.539,247.183 298.039 C 248.072 298.538,248.800 299.078,248.800 299.238 C 248.800 299.398,249.790 300.543,251.000 301.782 C 252.210 303.022,253.200 304.160,253.200 304.312 C 253.200 304.812,255.306 308.762,255.960 309.489 C 256.312 309.880,257.019 311.088,257.531 312.174 C 258.588 314.417,259.521 315.738,261.783 318.201 L 263.366 319.924 265.183 318.680 C 266.182 317.996,268.266 316.168,269.814 314.618 C 271.362 313.068,273.437 311.080,274.425 310.200 C 278.298 306.751,279.464 302.682,278.058 297.519 C 276.883 293.207,276.259 289.096,276.545 287.557 C 277.899 280.280,278.419 271.495,277.647 268.960 C 277.452 268.322,277.052 266.990,276.757 266.000 C 276.055 263.646,272.797 258.118,271.232 256.625 C 270.554 255.979,270.000 255.296,270.000 255.108 C 270.000 254.920,269.811 254.549,269.581 254.283 C 268.080 252.552,266.073 249.475,265.343 247.784 C 263.002 242.368,263.098 242.932,263.412 236.416 L 263.705 230.342 261.349 228.071 C 260.053 226.822,258.376 225.350,257.623 224.800 C 254.128 222.247,250.128 217.162,249.286 214.200 C 249.036 213.320,248.374 211.123,247.816 209.318 C 246.601 205.392,246.529 202.699,247.574 200.261 C 249.045 196.828,248.847 193.983,246.992 191.912 C 246.116 190.934,245.096 189.789,244.723 189.367 C 244.351 188.945,242.754 187.430,241.173 186.000 C 238.677 183.742,233.795 178.836,226.600 171.354 C 225.500 170.210,224.355 169.033,224.057 168.737 C 223.758 168.442,222.403 167.075,221.047 165.700 C 219.690 164.325,218.495 163.218,218.390 163.241 C 218.286 163.263,217.616 163.421,216.902 163.590 M305.328 202.131 C 302.859 203.643,301.675 205.058,301.364 206.868 C 301.097 208.423,300.822 209.174,299.657 211.538 C 299.186 212.494,298.800 213.454,298.800 213.673 C 298.800 214.601,296.369 219.102,295.231 220.281 C 291.954 223.677,292.364 227.990,296.107 229.489 C 296.937 229.821,297.927 230.477,298.307 230.946 C 298.688 231.416,299.669 232.153,300.487 232.584 C 302.905 233.859,306.648 237.696,308.164 240.455 L 309.575 243.021 309.987 250.948 C 310.440 259.652,310.681 260.523,312.981 261.762 C 313.688 262.143,314.767 262.918,315.379 263.486 L 316.492 264.517 318.746 263.813 C 320.795 263.173,321.567 262.540,327.234 256.855 C 330.663 253.415,334.319 249.907,335.359 249.059 C 336.400 248.211,338.024 246.455,338.969 245.156 C 339.914 243.857,341.421 242.263,342.318 241.613 C 343.215 240.963,344.546 239.766,345.275 238.951 C 346.004 238.137,348.580 235.474,351.000 233.033 C 353.420 230.592,355.959 227.966,356.643 227.197 C 357.990 225.682,358.405 225.331,360.210 224.173 C 362.174 222.914,365.205 218.776,365.194 217.371 C 365.179 215.520,364.771 215.400,358.514 215.400 C 352.902 215.400,351.916 215.259,348.600 213.981 C 346.695 213.247,345.984 213.093,342.076 212.568 C 337.851 212.001,335.944 211.352,334.471 209.980 C 334.010 209.551,333.526 209.200,333.395 209.200 C 332.652 209.200,329.473 207.431,327.990 206.192 C 326.160 204.662,324.347 203.600,323.567 203.600 C 323.307 203.600,322.443 203.195,321.647 202.700 C 317.698 200.244,308.908 199.937,305.328 202.131 M281.800 229.248 C 280.920 229.462,279.160 229.835,277.888 230.076 C 273.896 230.833,272.166 233.788,272.585 239.133 C 272.915 243.331,273.751 245.651,275.731 247.863 C 276.352 248.558,277.228 249.818,277.676 250.663 C 278.125 251.508,279.101 252.764,279.846 253.454 C 280.591 254.144,281.200 254.965,281.200 255.279 C 281.200 255.593,282.004 256.739,282.986 257.825 C 283.968 258.911,285.258 260.790,285.851 262.000 C 286.445 263.210,287.442 264.954,288.067 265.875 C 289.706 268.290,290.400 272.503,290.400 280.040 C 290.400 286.145,290.798 288.760,291.739 288.839 C 292.685 288.918,295.421 288.750,296.000 288.576 C 296.330 288.477,297.372 287.232,298.317 285.808 C 299.460 284.085,300.767 282.734,302.228 281.764 C 303.435 280.963,305.092 279.473,305.911 278.454 C 306.730 277.434,307.562 276.483,307.760 276.339 C 308.933 275.490,306.329 268.000,304.860 268.000 C 303.295 268.000,301.593 260.560,301.338 252.600 C 301.210 248.606,300.934 245.749,300.604 245.000 C 299.338 242.122,298.907 240.902,298.629 239.400 C 298.417 238.256,297.849 237.344,296.636 236.200 C 295.703 235.320,294.629 234.097,294.249 233.482 C 293.869 232.867,293.163 232.205,292.679 232.010 C 292.196 231.815,291.170 231.104,290.400 230.429 C 289.414 229.564,288.586 229.200,287.600 229.197 C 286.830 229.194,285.570 229.116,284.800 229.024 C 284.030 228.932,282.680 229.033,281.800 229.248 M186.751 301.301 C 184.164 303.740,184.094 303.860,183.809 306.318 C 183.520 308.814,184.732 312.000,185.971 312.000 C 186.583 312.000,186.851 314.828,186.935 322.212 C 187.022 329.741,186.982 329.956,184.849 333.430 C 184.434 334.107,183.960 335.270,183.797 336.014 C 183.385 337.887,182.081 340.844,181.436 341.366 C 181.141 341.605,180.322 342.880,179.615 344.200 C 178.909 345.520,178.004 346.960,177.604 347.400 C 176.323 348.809,175.409 351.581,175.556 353.614 C 175.679 355.327,189.088 368.638,192.534 370.469 C 203.417 376.249,206.712 374.982,207.278 364.800 C 207.431 362.050,207.742 358.900,207.969 357.800 C 209.244 351.632,209.903 342.225,209.244 339.600 C 209.051 338.830,208.665 336.850,208.387 335.200 C 207.918 332.421,207.513 331.344,205.305 327.000 C 204.858 326.120,204.361 324.606,204.200 323.636 C 204.025 322.580,203.507 321.470,202.908 320.871 C 201.630 319.594,201.200 318.060,201.200 314.779 C 201.200 310.353,201.995 310.092,203.374 314.066 C 204.507 317.332,205.143 318.400,205.957 318.400 C 206.184 318.400,207.077 319.435,207.942 320.700 C 208.806 321.965,210.779 324.350,212.327 326.000 C 214.294 328.097,215.473 329.783,216.246 331.600 C 216.853 333.030,217.743 334.830,218.222 335.600 C 220.267 338.888,220.546 356.523,218.622 360.900 C 218.350 361.518,218.565 361.599,220.457 361.595 C 222.738 361.590,225.428 359.524,228.666 355.292 C 229.290 354.477,230.323 353.358,230.962 352.805 C 231.602 352.252,233.948 350.000,236.175 347.800 C 238.403 345.600,240.882 343.308,241.684 342.706 C 242.486 342.104,244.011 340.437,245.071 339.002 C 246.132 337.567,247.315 336.293,247.700 336.170 C 248.085 336.047,248.400 335.790,248.400 335.600 C 248.400 335.410,248.742 335.145,249.160 335.013 C 253.442 333.654,254.524 325.619,250.805 322.800 C 250.402 322.494,249.983 321.275,249.196 318.120 C 248.693 316.101,248.112 314.848,247.253 313.929 C 246.486 313.108,245.869 311.882,245.606 310.653 C 245.053 308.075,244.209 306.347,243.094 305.509 C 242.596 305.135,241.520 304.217,240.703 303.469 C 239.806 302.647,238.619 302.009,237.708 301.858 C 235.466 301.488,228.989 301.548,227.926 301.950 C 226.449 302.507,222.678 301.550,220.611 300.093 C 218.714 298.756,214.033 298.176,213.400 299.200 C 213.264 299.420,212.895 299.600,212.580 299.600 C 210.850 299.600,203.132 303.582,202.533 304.783 L 202.051 305.750 201.565 304.683 C 201.297 304.096,200.764 303.515,200.379 303.393 C 199.995 303.271,198.627 302.496,197.340 301.670 C 191.778 298.100,190.202 298.045,186.751 301.301 " stroke="none" fill="#0a0a0b" fill-rule="evenodd"></path><path id="path1" d="M0.000 202.000 L 0.000 404.000 200.000 404.000 L 400.000 404.000 400.000 202.000 L 400.000 0.000 200.000 0.000 L 0.000 0.000 0.000 202.000 M208.927 32.584 C 210.723 33.014,211.698 33.557,213.209 34.970 C 214.285 35.977,215.344 36.800,215.562 36.800 C 215.779 36.800,231.942 52.811,251.479 72.381 C 271.015 91.950,287.180 108.138,287.400 108.354 C 287.620 108.571,290.050 110.924,292.800 113.584 C 295.550 116.243,297.980 118.610,298.200 118.842 C 298.527 119.188,329.515 150.146,330.497 151.109 C 330.795 151.401,341.493 162.134,342.477 163.129 C 342.765 163.419,347.410 168.057,352.800 173.434 C 358.190 178.811,362.726 183.343,362.879 183.505 C 366.970 187.824,368.000 188.982,368.000 189.260 C 368.000 189.445,368.795 190.402,369.767 191.388 C 371.750 193.400,372.380 196.181,371.803 200.380 C 371.334 203.788,371.637 203.721,356.679 203.713 C 342.174 203.706,341.075 203.600,339.251 202.043 C 338.493 201.397,336.450 200.463,334.374 199.814 C 332.408 199.199,330.800 198.585,330.799 198.448 C 330.797 197.866,325.867 195.672,323.000 194.977 C 321.900 194.710,319.846 194.178,318.435 193.794 C 315.477 192.988,312.593 193.320,307.200 195.086 C 302.889 196.498,300.529 195.948,298.794 193.129 C 298.137 192.061,297.600 191.052,297.600 190.887 C 297.600 190.721,296.925 189.764,296.100 188.761 C 295.275 187.758,294.240 186.443,293.800 185.838 C 293.360 185.233,292.526 184.489,291.947 184.184 C 291.368 183.878,290.206 182.902,289.365 182.014 C 288.523 181.126,287.555 180.400,287.212 180.400 C 286.869 180.400,285.915 180.039,285.092 179.598 C 281.516 177.682,276.171 176.730,271.561 177.188 C 265.807 177.761,262.995 176.418,257.534 170.489 C 257.387 170.330,256.397 169.233,255.334 168.050 C 254.270 166.868,252.705 165.248,251.855 164.450 C 251.006 163.653,249.926 162.570,249.455 162.044 C 248.985 161.518,248.170 160.708,247.644 160.244 C 247.118 159.780,246.308 158.986,245.844 158.480 C 245.061 157.626,242.357 154.937,235.676 148.369 C 227.717 140.543,227.137 139.119,229.705 133.705 C 230.125 132.819,229.581 129.082,228.814 127.585 C 228.641 127.246,228.372 126.166,228.216 125.185 C 227.736 122.155,227.059 120.238,226.146 119.317 C 225.664 118.831,224.861 117.706,224.361 116.817 C 223.862 115.928,223.313 115.200,223.143 115.200 C 222.973 115.200,221.881 114.236,220.717 113.058 C 214.888 107.160,209.797 105.627,197.400 106.036 L 193.800 106.154 190.100 102.494 C 188.065 100.480,186.400 98.658,186.400 98.443 C 186.400 98.229,186.085 97.953,185.700 97.829 C 185.315 97.706,183.984 96.569,182.742 95.302 C 178.842 91.326,173.721 86.242,172.538 85.171 C 171.912 84.605,170.230 82.839,168.800 81.247 C 167.370 79.654,165.962 78.137,165.671 77.876 C 165.381 77.614,164.203 76.485,163.055 75.367 C 161.907 74.248,160.678 73.168,160.325 72.967 C 159.447 72.465,156.698 67.688,157.004 67.194 C 157.753 65.982,165.375 58.095,169.200 54.575 C 170.410 53.462,174.550 49.345,178.400 45.427 C 182.250 41.509,186.210 37.651,187.200 36.852 C 188.190 36.053,189.063 35.256,189.140 35.080 C 190.291 32.449,202.116 30.957,208.927 32.584 M141.873 86.500 C 142.344 86.995,143.803 88.547,145.117 89.948 C 146.430 91.349,147.661 92.659,147.852 92.859 C 148.342 93.370,153.029 97.708,153.670 98.243 C 153.961 98.486,154.575 99.116,155.033 99.643 C 155.491 100.169,156.571 101.238,157.433 102.017 C 158.295 102.796,159.570 104.056,160.266 104.817 C 160.962 105.578,161.952 106.569,162.466 107.020 C 162.980 107.471,163.642 108.204,163.937 108.649 C 164.233 109.094,165.088 109.788,165.837 110.192 C 166.587 110.596,167.200 111.084,167.200 111.278 C 167.200 111.471,168.235 112.678,169.500 113.959 C 170.765 115.241,172.070 116.635,172.400 117.058 C 172.730 117.481,173.510 118.150,174.133 118.545 C 176.287 119.908,176.997 123.749,176.020 128.755 C 175.463 131.610,175.501 133.968,176.161 137.600 C 176.837 141.315,177.051 141.807,179.995 146.416 C 181.344 148.528,187.308 154.800,187.967 154.800 C 188.759 154.800,190.950 157.220,191.445 158.639 C 191.889 159.917,191.989 168.151,191.994 204.044 L 192.000 247.889 190.551 250.089 C 189.590 251.549,188.432 252.678,187.112 253.445 C 186.017 254.080,184.743 255.140,184.280 255.800 C 183.817 256.460,182.845 257.518,182.119 258.151 C 181.394 258.784,180.800 259.476,180.800 259.689 C 180.800 259.902,180.455 260.561,180.033 261.154 C 174.128 269.446,174.030 280.327,179.784 288.776 L 182.039 292.088 181.581 294.344 C 181.118 296.625,180.884 296.938,177.845 299.344 C 177.050 299.974,176.400 300.739,176.400 301.044 C 176.400 301.350,176.261 301.600,176.091 301.600 C 175.625 301.600,174.478 303.968,173.960 306.000 C 173.629 307.296,173.605 309.535,173.873 314.000 C 174.203 319.505,174.167 320.379,173.557 321.800 C 172.789 323.585,171.600 327.444,171.600 328.149 C 171.600 328.400,170.790 329.593,169.800 330.800 C 168.810 332.007,168.000 333.179,168.000 333.405 C 168.000 334.184,164.674 337.640,162.954 338.648 L 161.230 339.659 159.515 338.466 C 158.572 337.811,155.146 334.602,151.902 331.337 C 148.658 328.072,139.861 319.280,132.352 311.800 C 124.843 304.320,117.507 296.948,116.050 295.417 C 114.592 293.886,112.696 291.996,111.835 291.217 C 109.889 289.456,109.965 289.532,93.144 272.571 C 85.524 264.887,76.704 256.062,73.544 252.960 C 47.407 227.298,34.168 213.391,32.770 210.129 C 32.340 209.128,31.623 207.793,31.175 207.164 C 29.495 204.805,29.104 199.841,30.422 197.600 C 30.616 197.270,31.383 195.738,32.126 194.195 C 32.869 192.652,34.180 190.561,35.039 189.548 C 35.897 188.534,36.957 187.187,37.393 186.553 C 38.067 185.572,48.652 174.858,52.698 171.061 C 53.412 170.391,54.096 169.527,54.219 169.142 C 54.341 168.756,54.752 168.342,55.131 168.222 C 55.511 168.101,56.087 167.614,56.411 167.139 C 56.735 166.664,57.434 165.899,57.965 165.438 C 59.687 163.943,61.251 162.237,61.887 161.161 C 62.229 160.582,62.979 159.829,63.554 159.488 C 64.129 159.147,65.770 157.665,67.200 156.196 C 68.630 154.726,70.500 152.866,71.356 152.062 C 72.212 151.258,76.369 147.180,80.595 143.000 C 84.820 138.820,89.188 134.627,90.302 133.681 C 91.417 132.736,93.002 130.984,93.825 129.789 C 94.649 128.593,95.618 127.521,95.979 127.407 C 96.340 127.292,97.887 125.833,99.418 124.163 C 102.249 121.075,103.570 119.731,107.753 115.682 C 109.047 114.429,110.276 113.032,110.484 112.576 C 110.691 112.121,111.307 111.478,111.853 111.147 C 113.283 110.278,120.067 103.963,123.800 100.023 C 134.014 89.244,137.261 86.500,140.808 85.650 C 140.923 85.622,141.402 86.005,141.873 86.500 M221.047 165.700 C 222.403 167.075,223.758 168.442,224.057 168.737 C 224.355 169.033,225.500 170.210,226.600 171.354 C 233.795 178.836,238.677 183.742,241.173 186.000 C 242.754 187.430,244.351 188.945,244.723 189.367 C 245.096 189.789,246.116 190.934,246.992 191.912 C 248.847 193.983,249.045 196.828,247.574 200.261 C 246.529 202.699,246.601 205.392,247.816 209.318 C 248.374 211.123,249.036 213.320,249.286 214.200 C 250.128 217.162,254.128 222.247,257.623 224.800 C 258.376 225.350,260.053 226.822,261.349 228.071 L 263.705 230.342 263.412 236.416 C 263.098 242.932,263.002 242.368,265.343 247.784 C 266.073 249.475,268.080 252.552,269.581 254.283 C 269.811 254.549,270.000 254.920,270.000 255.108 C 270.000 255.296,270.554 255.979,271.232 256.625 C 272.797 258.118,276.055 263.646,276.757 266.000 C 277.052 266.990,277.452 268.322,277.647 268.960 C 278.419 271.495,277.899 280.280,276.545 287.557 C 276.259 289.096,276.883 293.207,278.058 297.519 C 279.464 302.682,278.298 306.751,274.425 310.200 C 273.437 311.080,271.362 313.068,269.814 314.618 C 268.266 316.168,266.182 317.996,265.183 318.680 L 263.366 319.924 261.783 318.201 C 259.521 315.738,258.588 314.417,257.531 312.174 C 257.019 311.088,256.312 309.880,255.960 309.489 C 255.306 308.762,253.200 304.812,253.200 304.312 C 253.200 304.160,252.210 303.022,251.000 301.782 C 249.790 300.543,248.800 299.398,248.800 299.238 C 248.800 299.078,248.072 298.538,247.183 298.039 C 246.294 297.539,245.155 296.719,244.652 296.216 C 241.819 293.383,231.199 293.490,229.419 296.370 C 228.359 298.085,222.778 298.249,222.139 296.584 C 221.657 295.329,224.394 289.710,226.089 288.473 C 226.986 287.819,227.821 285.869,228.194 283.559 C 228.350 282.592,228.835 280.450,229.273 278.800 C 230.067 275.806,230.056 274.853,229.190 271.200 C 228.955 270.210,228.582 268.500,228.361 267.400 C 227.881 265.015,227.052 263.107,226.178 262.382 C 225.828 262.091,225.204 261.192,224.792 260.384 C 224.073 258.975,219.634 254.328,217.310 252.551 C 215.115 250.873,215.145 251.463,215.029 208.142 C 214.971 186.174,214.789 167.470,214.627 166.578 C 214.240 164.457,214.719 164.031,218.390 163.241 C 218.495 163.218,219.690 164.325,221.047 165.700 M318.800 201.306 C 319.570 201.578,320.851 202.205,321.647 202.700 C 322.443 203.195,323.307 203.600,323.567 203.600 C 324.347 203.600,326.160 204.662,327.990 206.192 C 329.473 207.431,332.652 209.200,333.395 209.200 C 333.526 209.200,334.010 209.551,334.471 209.980 C 335.944 211.352,337.851 212.001,342.076 212.568 C 345.984 213.093,346.695 213.247,348.600 213.981 C 351.916 215.259,352.902 215.400,358.514 215.400 C 364.771 215.400,365.179 215.520,365.194 217.371 C 365.205 218.776,362.174 222.914,360.210 224.173 C 358.405 225.331,357.990 225.682,356.643 227.197 C 355.959 227.966,353.420 230.592,351.000 233.033 C 348.580 235.474,346.004 238.137,345.275 238.951 C 344.546 239.766,343.215 240.963,342.318 241.613 C 341.421 242.263,339.914 243.857,338.969 245.156 C 338.024 246.455,336.400 248.211,335.359 249.059 C 334.319 249.907,330.663 253.415,327.234 256.855 C 321.567 262.540,320.795 263.173,318.746 263.813 L 316.492 264.517 315.379 263.486 C 314.767 262.918,313.688 262.143,312.981 261.762 C 310.681 260.523,310.440 259.652,309.987 250.948 L 309.575 243.021 308.164 240.455 C 306.648 237.696,302.905 233.859,300.487 232.584 C 299.669 232.153,298.688 231.416,298.307 230.946 C 297.927 230.477,296.937 229.821,296.107 229.489 C 292.364 227.990,291.954 223.677,295.231 220.281 C 296.369 219.102,298.800 214.601,298.800 213.673 C 298.800 213.454,299.186 212.494,299.657 211.538 C 300.822 209.174,301.097 208.423,301.364 206.868 C 302.192 202.048,312.020 198.914,318.800 201.306 M287.600 229.197 C 288.586 229.200,289.414 229.564,290.400 230.429 C 291.170 231.104,292.196 231.815,292.679 232.010 C 293.163 232.205,293.869 232.867,294.249 233.482 C 294.629 234.097,295.703 235.320,296.636 236.200 C 297.849 237.344,298.417 238.256,298.629 239.400 C 298.907 240.902,299.338 242.122,300.604 245.000 C 300.934 245.749,301.210 248.606,301.338 252.600 C 301.593 260.560,303.295 268.000,304.860 268.000 C 306.329 268.000,308.933 275.490,307.760 276.339 C 307.562 276.483,306.730 277.434,305.911 278.454 C 305.092 279.473,303.435 280.963,302.228 281.764 C 300.767 282.734,299.460 284.085,298.317 285.808 C 297.372 287.232,296.330 288.477,296.000 288.576 C 295.421 288.750,292.685 288.918,291.739 288.839 C 290.798 288.760,290.400 286.145,290.400 280.040 C 290.400 272.503,289.706 268.290,288.067 265.875 C 287.442 264.954,286.445 263.210,285.851 262.000 C 285.258 260.790,283.968 258.911,282.986 257.825 C 282.004 256.739,281.200 255.593,281.200 255.279 C 281.200 254.965,280.591 254.144,279.846 253.454 C 279.101 252.764,278.125 251.508,277.676 250.663 C 277.228 249.818,276.352 248.558,275.731 247.863 C 273.751 245.651,272.915 243.331,272.585 239.133 C 272.166 233.788,273.896 230.833,277.888 230.076 C 279.160 229.835,280.920 229.462,281.800 229.248 C 282.680 229.033,284.030 228.932,284.800 229.024 C 285.570 229.116,286.830 229.194,287.600 229.197 M193.187 299.484 C 194.184 299.860,196.053 300.844,197.340 301.670 C 198.627 302.496,199.995 303.271,200.379 303.393 C 200.764 303.515,201.297 304.096,201.565 304.683 L 202.051 305.750 202.533 304.783 C 203.132 303.582,210.850 299.600,212.580 299.600 C 212.895 299.600,213.264 299.420,213.400 299.200 C 214.033 298.176,218.714 298.756,220.611 300.093 C 222.678 301.550,226.449 302.507,227.926 301.950 C 228.989 301.548,235.466 301.488,237.708 301.858 C 238.619 302.009,239.806 302.647,240.703 303.469 C 241.520 304.217,242.596 305.135,243.094 305.509 C 244.209 306.347,245.053 308.075,245.606 310.653 C 245.869 311.882,246.486 313.108,247.253 313.929 C 248.112 314.848,248.693 316.101,249.196 318.120 C 249.983 321.275,250.402 322.494,250.805 322.800 C 254.524 325.619,253.442 333.654,249.160 335.013 C 248.742 335.145,248.400 335.410,248.400 335.600 C 248.400 335.790,248.085 336.047,247.700 336.170 C 247.315 336.293,246.132 337.567,245.071 339.002 C 244.011 340.437,242.486 342.104,241.684 342.706 C 240.882 343.308,238.403 345.600,236.175 347.800 C 233.948 350.000,231.602 352.252,230.962 352.805 C 230.323 353.358,229.290 354.477,228.666 355.292 C 225.428 359.524,222.738 361.590,220.457 361.595 C 218.565 361.599,218.350 361.518,218.622 360.900 C 220.546 356.523,220.267 338.888,218.222 335.600 C 217.743 334.830,216.853 333.030,216.246 331.600 C 215.473 329.783,214.294 328.097,212.327 326.000 C 210.779 324.350,208.806 321.965,207.942 320.700 C 207.077 319.435,206.184 318.400,205.957 318.400 C 205.143 318.400,204.507 317.332,203.374 314.066 C 201.995 310.092,201.200 310.353,201.200 314.779 C 201.200 318.060,201.630 319.594,202.908 320.871 C 203.507 321.470,204.025 322.580,204.200 323.636 C 204.361 324.606,204.858 326.120,205.305 327.000 C 207.513 331.344,207.918 332.421,208.387 335.200 C 208.665 336.850,209.051 338.830,209.244 339.600 C 209.903 342.225,209.244 351.632,207.969 357.800 C 207.742 358.900,207.431 362.050,207.278 364.800 C 206.712 374.982,203.417 376.249,192.534 370.469 C 189.088 368.638,175.679 355.327,175.556 353.614 C 175.409 351.581,176.323 348.809,177.604 347.400 C 178.004 346.960,178.909 345.520,179.615 344.200 C 180.322 342.880,181.141 341.605,181.436 341.366 C 182.081 340.844,183.385 337.887,183.797 336.014 C 183.960 335.270,184.434 334.107,184.849 333.430 C 186.982 329.956,187.022 329.741,186.935 322.212 C 186.851 314.828,186.583 312.000,185.971 312.000 C 185.773 312.000,185.140 311.288,184.564 310.418 C 181.211 305.351,187.523 297.348,193.187 299.484 " stroke="none" fill="#fbfbfb" fill-rule="evenodd"></path></g></svg>