<svg id="svg" version="1.1" xmlns="http://www.w3.org/2000/svg" xmlns:xlink="http://www.w3.org/1999/xlink" width="400" height="400" viewBox="0, 0, 400,400"><g id="svgg"><path id="path0" d="M0.000 12.400 C 0.000 13.733,0.178 14.800,0.400 14.800 C 0.620 14.800,0.800 15.520,0.800 16.400 C 0.800 17.733,0.933 18.000,1.600 18.000 C 2.267 18.000,2.400 18.267,2.400 19.600 C 2.400 20.933,2.533 21.200,3.200 21.200 C 3.852 21.200,4.000 21.467,4.000 22.637 C 4.000 23.738,4.187 24.124,4.800 24.284 C 5.401 24.441,5.600 24.830,5.600 25.847 C 5.600 26.933,5.758 27.200,6.400 27.200 C 7.067 27.200,7.200 27.467,7.200 28.800 C 7.200 30.133,7.333 30.400,8.000 30.400 C 8.667 30.400,8.800 30.667,8.800 32.000 C 8.800 33.099,8.974 33.600,9.355 33.600 C 9.675 33.600,10.024 34.203,10.178 35.021 C 10.324 35.803,10.686 36.535,10.983 36.649 C 11.279 36.762,11.612 37.203,11.723 37.628 C 11.834 38.052,12.212 38.400,12.563 38.400 C 13.028 38.400,13.200 38.789,13.200 39.837 C 13.200 40.938,13.387 41.324,14.000 41.484 C 14.601 41.641,14.800 42.030,14.800 43.047 C 14.800 44.133,14.958 44.400,15.600 44.400 C 16.267 44.400,16.400 44.667,16.400 46.000 C 16.400 47.333,16.533 47.600,17.200 47.600 C 17.867 47.600,18.000 47.867,18.000 49.200 C 18.000 50.533,18.133 50.800,18.800 50.800 C 19.452 50.800,19.600 51.067,19.600 52.237 C 19.600 53.338,19.787 53.724,20.400 53.884 C 21.001 54.041,21.200 54.430,21.200 55.447 C 21.200 56.533,21.358 56.800,22.000 56.800 C 22.667 56.800,22.800 57.067,22.800 58.400 C 22.800 59.733,22.933 60.000,23.600 60.000 C 24.133 60.000,24.400 60.267,24.400 60.800 C 24.400 61.244,24.667 61.600,25.000 61.600 C 25.368 61.600,25.600 61.974,25.600 62.567 C 25.600 63.948,25.998 64.800,26.643 64.800 C 27.016 64.800,27.200 65.275,27.200 66.237 C 27.200 67.338,27.387 67.724,28.000 67.884 C 28.606 68.043,28.800 68.430,28.800 69.484 C 28.800 70.538,28.994 70.925,29.600 71.084 C 30.197 71.240,30.400 71.630,30.400 72.620 C 30.400 73.595,30.612 74.013,31.200 74.200 C 31.795 74.389,32.000 74.805,32.000 75.827 C 32.000 76.933,32.155 77.200,32.800 77.200 C 33.452 77.200,33.600 77.467,33.600 78.637 C 33.600 79.738,33.787 80.124,34.400 80.284 C 35.006 80.443,35.200 80.830,35.200 81.884 C 35.200 82.938,35.394 83.325,36.000 83.484 C 36.443 83.600,36.800 84.030,36.800 84.447 C 36.800 84.933,37.083 85.200,37.600 85.200 C 38.267 85.200,38.400 85.467,38.400 86.800 C 38.400 88.133,38.533 88.400,39.200 88.400 C 39.867 88.400,40.000 88.667,40.000 90.000 C 40.000 91.333,40.133 91.600,40.800 91.600 C 41.448 91.600,41.600 91.867,41.600 93.000 C 41.600 93.978,41.781 94.400,42.200 94.400 C 42.622 94.400,42.800 94.826,42.800 95.837 C 42.800 96.938,42.987 97.324,43.600 97.484 C 44.206 97.643,44.400 98.030,44.400 99.084 C 44.400 100.138,44.594 100.525,45.200 100.684 C 45.806 100.843,46.000 101.230,46.000 102.284 C 46.000 103.338,46.194 103.725,46.800 103.884 C 47.374 104.034,47.600 104.430,47.600 105.284 C 47.600 106.138,47.826 106.534,48.400 106.684 C 49.006 106.843,49.200 107.230,49.200 108.284 C 49.200 109.338,49.394 109.725,50.000 109.884 C 50.443 110.000,50.800 110.430,50.800 110.847 C 50.800 111.333,51.083 111.600,51.600 111.600 C 52.267 111.600,52.400 111.867,52.400 113.200 C 52.400 114.533,52.533 114.800,53.200 114.800 C 53.867 114.800,54.000 115.067,54.000 116.400 C 54.000 117.733,54.133 118.000,54.800 118.000 C 55.467 118.000,55.600 118.267,55.600 119.600 C 55.600 120.933,55.733 121.200,56.400 121.200 C 57.036 121.200,57.200 121.467,57.200 122.504 C 57.200 123.374,57.466 123.974,58.000 124.307 C 58.510 124.626,58.800 125.240,58.800 126.003 C 58.800 126.767,59.004 127.200,59.365 127.200 C 59.712 127.200,60.034 127.816,60.200 128.800 C 60.366 129.784,60.688 130.400,61.035 130.400 C 61.366 130.400,61.600 130.801,61.600 131.367 C 61.600 133.779,58.578 133.600,99.235 133.600 L 136.385 133.600 136.653 132.533 C 136.858 131.716,136.718 131.301,136.060 130.768 C 135.587 130.385,135.200 129.786,135.200 129.436 C 135.200 129.067,134.865 128.800,134.400 128.800 C 133.755 128.800,133.600 128.533,133.600 127.427 C 133.600 126.405,133.395 125.989,132.800 125.800 C 132.205 125.611,132.000 125.195,132.000 124.173 C 132.000 123.067,131.845 122.800,131.200 122.800 C 130.533 122.800,130.400 122.533,130.400 121.200 C 130.400 119.867,130.267 119.600,129.600 119.600 C 128.933 119.600,128.800 119.333,128.800 118.000 C 128.800 116.667,128.667 116.400,128.000 116.400 C 127.348 116.400,127.200 116.133,127.200 114.963 C 127.200 113.862,127.013 113.476,126.400 113.316 C 125.799 113.159,125.600 112.770,125.600 111.753 C 125.600 110.817,125.415 110.400,125.000 110.400 C 124.667 110.400,124.400 110.044,124.400 109.600 C 124.400 109.067,124.133 108.800,123.600 108.800 C 122.933 108.800,122.800 108.533,122.800 107.200 C 122.800 105.867,122.667 105.600,122.000 105.600 C 121.333 105.600,121.200 105.333,121.200 104.000 C 121.200 102.667,121.067 102.400,120.400 102.400 C 119.748 102.400,119.600 102.133,119.600 100.963 C 119.600 99.862,119.413 99.476,118.800 99.316 C 118.194 99.157,118.000 98.770,118.000 97.716 C 118.000 96.662,117.806 96.275,117.200 96.116 C 116.599 95.959,116.400 95.570,116.400 94.553 C 116.400 93.467,116.242 93.200,115.600 93.200 C 114.933 93.200,114.800 92.933,114.800 91.600 C 114.800 90.267,114.667 90.000,114.000 90.000 C 113.467 90.000,113.200 89.733,113.200 89.200 C 113.200 88.667,112.933 88.400,112.400 88.400 C 111.733 88.400,111.600 88.133,111.600 86.800 C 111.600 85.467,111.467 85.200,110.800 85.200 C 110.133 85.200,110.000 84.933,110.000 83.600 C 110.000 82.267,109.867 82.000,109.200 82.000 C 108.551 82.000,108.400 81.733,108.400 80.587 C 108.400 79.701,108.177 79.089,107.800 78.945 C 107.452 78.811,107.200 78.213,107.200 77.520 C 107.200 76.662,106.975 76.266,106.400 76.116 C 105.957 76.000,105.600 75.570,105.600 75.153 C 105.600 74.419,107.138 74.400,167.100 74.395 C 234.103 74.389,230.400 74.495,230.400 72.580 C 230.400 71.605,230.612 71.187,231.200 71.000 C 231.788 70.813,232.000 70.395,232.000 69.420 C 232.000 68.430,232.203 68.040,232.800 67.884 C 233.413 67.724,233.600 67.338,233.600 66.237 C 233.600 65.067,233.748 64.800,234.400 64.800 C 235.067 64.800,235.200 64.533,235.200 63.200 C 235.200 61.867,235.333 61.600,236.000 61.600 C 236.667 61.600,236.800 61.333,236.800 60.000 C 236.800 58.667,236.933 58.400,237.600 58.400 C 238.242 58.400,238.400 58.133,238.400 57.047 C 238.400 56.030,238.599 55.641,239.200 55.484 C 239.813 55.324,240.000 54.938,240.000 53.837 C 240.000 52.813,240.176 52.400,240.613 52.400 C 240.949 52.400,241.341 52.085,241.482 51.700 C 241.624 51.315,241.978 50.856,242.270 50.680 C 242.561 50.504,242.800 49.739,242.800 48.980 C 242.800 47.867,242.955 47.600,243.600 47.600 C 244.267 47.600,244.400 47.333,244.400 46.000 C 244.400 44.667,244.533 44.400,245.200 44.400 C 245.845 44.400,246.000 44.133,246.000 43.027 C 246.000 42.005,246.205 41.589,246.800 41.400 C 247.388 41.213,247.600 40.795,247.600 39.820 C 247.600 38.830,247.803 38.440,248.400 38.284 C 249.013 38.124,249.200 37.738,249.200 36.637 C 249.200 35.467,249.348 35.200,250.000 35.200 C 250.667 35.200,250.800 34.933,250.800 33.600 C 250.800 32.267,250.933 32.000,251.600 32.000 C 252.267 32.000,252.400 31.733,252.400 30.400 C 252.400 29.067,252.533 28.800,253.200 28.800 C 253.733 28.800,254.000 28.533,254.000 28.000 C 254.000 27.560,254.251 27.200,254.557 27.200 C 255.202 27.200,255.600 26.348,255.600 24.967 C 255.600 24.388,255.833 24.000,256.182 24.000 C 256.528 24.000,256.868 23.444,257.021 22.628 C 257.163 21.873,257.531 21.159,257.839 21.040 C 258.174 20.912,258.400 20.255,258.400 19.413 C 258.400 18.267,258.551 18.000,259.200 18.000 C 259.867 18.000,260.000 17.733,260.000 16.400 C 260.000 15.067,260.133 14.800,260.800 14.800 C 261.511 14.800,261.600 14.533,261.600 12.400 L 261.600 10.000 130.800 10.000 L 0.000 10.000 0.000 12.400 M265.067 10.267 C 264.920 10.413,264.800 11.133,264.800 11.867 C 264.800 12.933,264.640 13.200,264.000 13.200 C 263.333 13.200,263.200 13.467,263.200 14.800 C 263.200 16.133,263.067 16.400,262.400 16.400 C 261.867 16.400,261.600 16.667,261.600 17.200 C 261.600 17.640,261.346 18.000,261.035 18.000 C 260.688 18.000,260.366 18.616,260.200 19.600 C 260.034 20.584,259.712 21.200,259.365 21.200 C 258.973 21.200,258.800 21.689,258.800 22.800 C 258.800 24.133,258.667 24.400,258.000 24.400 C 257.358 24.400,257.200 24.667,257.200 25.753 C 257.200 26.770,257.001 27.159,256.400 27.316 C 255.787 27.476,255.600 27.862,255.600 28.963 C 255.600 30.133,255.452 30.400,254.800 30.400 C 254.133 30.400,254.000 30.667,254.000 32.000 C 254.000 33.333,253.867 33.600,253.200 33.600 C 252.533 33.600,252.400 33.867,252.400 35.200 C 252.400 36.533,252.267 36.800,251.600 36.800 C 250.933 36.800,250.800 37.067,250.800 38.400 C 250.800 39.733,250.667 40.000,250.000 40.000 C 249.358 40.000,249.200 40.267,249.200 41.353 C 249.200 42.370,249.001 42.759,248.400 42.916 C 247.794 43.075,247.600 43.462,247.600 44.516 C 247.600 45.570,247.406 45.957,246.800 46.116 C 246.187 46.276,246.000 46.662,246.000 47.763 C 246.000 48.933,245.852 49.200,245.200 49.200 C 244.667 49.200,244.400 49.467,244.400 50.000 C 244.400 50.440,244.146 50.800,243.835 50.800 C 243.488 50.800,243.166 51.416,243.000 52.400 C 242.834 53.384,242.512 54.000,242.165 54.000 C 241.773 54.000,241.600 54.489,241.600 55.600 C 241.600 56.933,241.467 57.200,240.800 57.200 C 240.155 57.200,240.000 57.467,240.000 58.573 C 240.000 59.595,239.795 60.011,239.200 60.200 C 238.612 60.387,238.400 60.805,238.400 61.780 C 238.400 62.770,238.197 63.160,237.600 63.316 C 236.987 63.476,236.800 63.862,236.800 64.963 C 236.800 66.133,236.652 66.400,236.000 66.400 C 235.333 66.400,235.200 66.667,235.200 68.000 C 235.200 69.346,235.070 69.600,234.380 69.600 C 233.635 69.600,233.571 69.809,233.680 71.900 L 233.800 74.200 239.735 74.311 C 245.375 74.416,245.680 74.382,245.878 73.624 C 245.993 73.185,246.427 72.718,246.843 72.586 C 247.385 72.414,247.600 71.970,247.600 71.020 C 247.600 70.030,247.803 69.640,248.400 69.484 C 249.013 69.324,249.200 68.938,249.200 67.837 C 249.200 66.667,249.348 66.400,250.000 66.400 C 250.667 66.400,250.800 66.133,250.800 64.800 C 250.800 63.467,250.933 63.200,251.600 63.200 C 252.267 63.200,252.400 62.933,252.400 61.600 C 252.400 60.267,252.533 60.000,253.200 60.000 C 253.842 60.000,254.000 59.733,254.000 58.647 C 254.000 57.630,254.199 57.241,254.800 57.084 C 255.413 56.924,255.600 56.538,255.600 55.437 C 255.600 54.413,255.776 54.000,256.213 54.000 C 256.549 54.000,256.941 53.685,257.082 53.300 C 257.224 52.915,257.578 52.456,257.870 52.280 C 258.161 52.104,258.400 51.339,258.400 50.580 C 258.400 49.467,258.555 49.200,259.200 49.200 C 259.867 49.200,260.000 48.933,260.000 47.600 C 260.000 46.267,260.133 46.000,260.800 46.000 C 261.467 46.000,261.600 45.733,261.600 44.400 C 261.600 43.067,261.733 42.800,262.400 42.800 C 263.045 42.800,263.200 42.533,263.200 41.427 C 263.200 40.405,263.405 39.989,264.000 39.800 C 264.595 39.611,264.800 39.195,264.800 38.173 C 264.800 37.067,264.955 36.800,265.600 36.800 C 266.267 36.800,266.400 36.533,266.400 35.200 C 266.400 33.867,266.533 33.600,267.200 33.600 C 267.867 33.600,268.000 33.333,268.000 32.000 C 268.000 30.667,268.133 30.400,268.800 30.400 C 269.467 30.400,269.600 30.133,269.600 28.800 C 269.600 27.467,269.733 27.200,270.400 27.200 C 271.042 27.200,271.200 26.933,271.200 25.847 C 271.200 24.830,271.399 24.441,272.000 24.284 C 272.613 24.124,272.800 23.738,272.800 22.637 C 272.800 21.613,272.976 21.200,273.413 21.200 C 273.749 21.200,274.141 20.885,274.282 20.500 C 274.424 20.115,274.778 19.656,275.070 19.480 C 275.361 19.304,275.600 18.560,275.600 17.827 C 275.600 16.830,275.802 16.441,276.400 16.284 C 277.013 16.124,277.200 15.738,277.200 14.637 C 277.200 13.467,277.348 13.200,278.000 13.200 C 279.028 13.200,279.174 10.629,278.167 10.243 C 277.304 9.912,265.400 9.933,265.067 10.267 M282.000 10.753 C 282.000 11.170,281.643 11.600,281.200 11.716 C 280.587 11.876,280.400 12.262,280.400 13.363 C 280.400 14.533,280.252 14.800,279.600 14.800 C 279.067 14.800,278.800 15.067,278.800 15.600 C 278.800 16.042,278.533 16.400,278.205 16.400 C 277.820 16.400,277.519 16.965,277.354 18.000 C 277.213 18.880,276.874 19.600,276.600 19.600 C 276.326 19.600,275.987 20.320,275.846 21.200 C 275.681 22.235,275.380 22.800,274.995 22.800 C 274.567 22.800,274.400 23.250,274.400 24.400 C 274.400 25.733,274.267 26.000,273.600 26.000 C 272.952 26.000,272.800 26.267,272.800 27.400 C 272.800 28.533,272.648 28.800,272.000 28.800 C 271.333 28.800,271.200 29.067,271.200 30.400 C 271.200 31.733,271.067 32.000,270.400 32.000 C 269.733 32.000,269.600 32.267,269.600 33.600 C 269.600 34.933,269.467 35.200,268.800 35.200 C 268.133 35.200,268.000 35.467,268.000 36.800 C 268.000 38.133,267.867 38.400,267.200 38.400 C 266.683 38.400,266.400 38.667,266.400 39.153 C 266.400 39.570,266.043 40.000,265.600 40.116 C 264.994 40.275,264.800 40.662,264.800 41.716 C 264.800 42.770,264.606 43.157,264.000 43.316 C 263.426 43.466,263.200 43.862,263.200 44.716 C 263.200 45.570,262.974 45.966,262.400 46.116 C 261.787 46.276,261.600 46.662,261.600 47.763 C 261.600 48.725,261.416 49.200,261.043 49.200 C 260.398 49.200,260.000 50.052,260.000 51.433 C 260.000 52.026,259.768 52.400,259.400 52.400 C 259.032 52.400,258.800 52.774,258.800 53.367 C 258.800 54.748,258.402 55.600,257.757 55.600 C 257.374 55.600,257.200 56.099,257.200 57.200 C 257.200 58.533,257.067 58.800,256.400 58.800 C 255.752 58.800,255.600 59.067,255.600 60.200 C 255.600 61.333,255.448 61.600,254.800 61.600 C 254.283 61.600,254.000 61.867,254.000 62.353 C 254.000 62.770,253.643 63.200,253.200 63.316 C 252.594 63.475,252.400 63.862,252.400 64.916 C 252.400 65.970,252.206 66.357,251.600 66.516 C 250.987 66.676,250.800 67.062,250.800 68.163 C 250.800 69.345,250.655 69.600,249.980 69.600 C 249.235 69.600,249.171 69.809,249.280 71.900 L 249.400 74.200 255.500 74.310 C 261.275 74.415,261.600 74.380,261.600 73.657 C 261.600 73.230,261.952 72.801,262.400 72.684 C 263.013 72.524,263.200 72.138,263.200 71.037 C 263.200 69.867,263.348 69.600,264.000 69.600 C 264.667 69.600,264.800 69.333,264.800 68.000 C 264.800 66.667,264.933 66.400,265.600 66.400 C 266.117 66.400,266.400 66.133,266.400 65.647 C 266.400 65.230,266.757 64.800,267.200 64.684 C 267.806 64.525,268.000 64.138,268.000 63.084 C 268.000 62.030,268.194 61.643,268.800 61.484 C 269.406 61.325,269.600 60.938,269.600 59.884 C 269.600 58.830,269.794 58.443,270.400 58.284 C 270.964 58.137,271.200 57.738,271.200 56.934 C 271.200 56.226,271.504 55.603,272.000 55.293 C 272.499 54.981,272.800 54.360,272.800 53.643 C 272.800 52.830,273.034 52.432,273.600 52.284 C 274.213 52.124,274.400 51.738,274.400 50.637 C 274.400 49.626,274.578 49.200,275.000 49.200 C 275.433 49.200,275.600 48.756,275.600 47.600 C 275.600 46.267,275.733 46.000,276.400 46.000 C 277.067 46.000,277.200 45.733,277.200 44.400 C 277.200 43.067,277.333 42.800,278.000 42.800 C 278.465 42.800,278.800 42.533,278.800 42.163 C 278.800 41.812,279.160 41.431,279.600 41.316 C 280.197 41.160,280.400 40.770,280.400 39.780 C 280.400 38.805,280.612 38.387,281.200 38.200 C 281.788 38.013,282.000 37.595,282.000 36.620 C 282.000 35.630,282.203 35.240,282.800 35.084 C 283.406 34.925,283.600 34.538,283.600 33.484 C 283.600 32.430,283.794 32.043,284.400 31.884 C 285.013 31.724,285.200 31.338,285.200 30.237 C 285.200 29.067,285.348 28.800,286.000 28.800 C 286.667 28.800,286.800 28.533,286.800 27.200 C 286.800 25.867,286.933 25.600,287.600 25.600 C 288.242 25.600,288.400 25.333,288.400 24.247 C 288.400 23.230,288.599 22.841,289.200 22.684 C 289.806 22.525,290.000 22.138,290.000 21.084 C 290.000 20.030,290.194 19.643,290.800 19.484 C 291.240 19.369,291.600 19.007,291.600 18.680 C 291.600 18.353,291.870 17.982,292.200 17.855 C 292.577 17.711,292.800 17.099,292.800 16.213 C 292.800 15.067,292.951 14.800,293.600 14.800 C 294.311 14.800,294.400 14.533,294.400 12.400 L 294.400 10.000 288.200 10.000 C 282.395 10.000,282.000 10.048,282.000 10.753 " stroke="none" fill="#fcfcfc" fill-rule="evenodd"></path><path id="path1" d="M328.926 10.763 C 328.816 11.183,328.383 11.616,327.963 11.726 C 327.391 11.875,327.200 12.285,327.200 13.363 C 327.200 14.254,327.008 14.800,326.694 14.800 C 326.216 14.800,324.389 18.142,324.397 19.004 C 324.398 19.226,324.040 19.632,323.600 19.907 C 323.101 20.219,322.800 20.840,322.800 21.557 C 322.800 22.370,322.566 22.768,322.000 22.916 C 321.387 23.076,321.200 23.462,321.200 24.563 C 321.200 25.733,321.052 26.000,320.400 26.000 C 319.758 26.000,319.600 26.267,319.600 27.353 C 319.600 28.370,319.401 28.759,318.800 28.916 C 318.187 29.076,318.000 29.462,318.000 30.563 C 318.000 31.733,317.852 32.000,317.200 32.000 C 316.533 32.000,316.400 32.267,316.400 33.600 C 316.400 34.933,316.267 35.200,315.600 35.200 C 314.933 35.200,314.800 35.467,314.800 36.800 C 314.800 38.133,314.667 38.400,314.000 38.400 C 313.333 38.400,313.200 38.667,313.200 40.000 C 313.200 41.333,313.067 41.600,312.400 41.600 C 311.935 41.600,311.600 41.867,311.600 42.237 C 311.600 42.587,311.240 43.331,310.800 43.891 C 310.360 44.450,310.000 45.244,310.000 45.654 C 310.000 46.064,309.730 46.400,309.400 46.400 C 308.985 46.400,308.800 46.817,308.800 47.753 C 308.800 48.770,308.601 49.159,308.000 49.316 C 307.387 49.476,307.200 49.862,307.200 50.963 C 307.200 52.133,307.052 52.400,306.400 52.400 C 305.733 52.400,305.600 52.667,305.600 54.000 C 305.600 55.333,305.467 55.600,304.800 55.600 C 304.133 55.600,304.000 55.867,304.000 57.200 C 304.000 58.533,303.867 58.800,303.200 58.800 C 302.558 58.800,302.400 59.067,302.400 60.153 C 302.400 61.170,302.201 61.559,301.600 61.716 C 300.987 61.876,300.800 62.262,300.800 63.363 C 300.800 64.533,300.652 64.800,300.000 64.800 C 299.427 64.800,299.200 65.067,299.200 65.738 C 299.200 66.254,298.840 67.002,298.400 67.400 C 297.960 67.798,297.600 68.462,297.600 68.875 C 297.600 69.287,297.335 69.727,297.011 69.851 C 296.687 69.976,296.307 70.690,296.166 71.439 C 296.026 72.187,295.677 72.800,295.391 72.800 C 295.095 72.800,294.753 73.492,294.600 74.400 C 294.447 75.308,294.105 76.000,293.809 76.000 C 293.523 76.000,293.174 76.613,293.034 77.361 C 292.893 78.110,292.513 78.824,292.189 78.949 C 291.824 79.089,291.600 79.712,291.600 80.587 C 291.600 81.733,291.449 82.000,290.800 82.000 C 290.133 82.000,290.000 82.267,290.000 83.600 C 290.000 84.933,289.867 85.200,289.200 85.200 C 288.533 85.200,288.400 85.467,288.400 86.800 C 288.400 88.133,288.267 88.400,287.600 88.400 C 286.933 88.400,286.800 88.667,286.800 90.000 C 286.800 91.333,286.667 91.600,286.000 91.600 C 285.556 91.600,285.200 91.867,285.200 92.200 C 285.200 92.530,284.840 93.160,284.400 93.600 C 283.960 94.040,283.600 94.829,283.600 95.353 C 283.600 95.970,283.318 96.381,282.800 96.516 C 282.217 96.668,282.000 97.062,282.000 97.963 C 282.000 98.754,281.799 99.200,281.443 99.200 C 280.805 99.200,280.400 100.049,280.400 101.386 C 280.400 101.970,280.108 102.383,279.600 102.516 C 278.994 102.675,278.800 103.062,278.800 104.116 C 278.800 105.170,278.606 105.557,278.000 105.716 C 277.387 105.876,277.200 106.262,277.200 107.363 C 277.200 108.354,277.019 108.800,276.618 108.800 C 276.270 108.800,275.931 109.362,275.774 110.200 C 275.623 111.002,275.274 111.600,274.955 111.600 C 274.574 111.600,274.400 112.101,274.400 113.200 C 274.400 114.533,274.267 114.800,273.600 114.800 C 273.067 114.800,272.800 115.067,272.800 115.600 C 272.800 116.040,272.440 116.760,272.000 117.200 C 271.560 117.640,271.200 118.317,271.200 118.704 C 271.200 119.091,270.840 119.632,270.400 119.907 C 269.901 120.219,269.600 120.840,269.600 121.557 C 269.600 122.370,269.366 122.768,268.800 122.916 C 268.187 123.076,268.000 123.462,268.000 124.563 C 268.000 125.733,267.852 126.000,267.200 126.000 C 266.558 126.000,266.400 126.267,266.400 127.353 C 266.400 128.370,266.201 128.759,265.600 128.916 C 264.994 129.075,264.800 129.462,264.800 130.516 C 264.800 131.570,264.606 131.957,264.000 132.116 C 263.394 132.275,263.200 132.662,263.200 133.716 C 263.200 134.770,263.006 135.157,262.400 135.316 C 261.794 135.475,261.600 135.862,261.600 136.916 C 261.600 137.970,261.406 138.357,260.800 138.516 C 260.187 138.676,260.000 139.062,260.000 140.163 C 260.000 141.174,259.822 141.600,259.400 141.600 C 259.070 141.600,258.800 141.917,258.800 142.304 C 258.800 142.691,258.440 143.232,258.000 143.507 C 257.535 143.797,257.200 144.440,257.200 145.041 C 257.200 145.738,256.940 146.143,256.400 146.284 C 255.806 146.439,255.600 146.830,255.600 147.800 C 255.600 148.770,255.394 149.161,254.800 149.316 C 254.187 149.476,254.000 149.862,254.000 150.963 C 254.000 152.133,253.852 152.400,253.200 152.400 C 252.533 152.400,252.400 152.667,252.400 154.000 C 252.400 155.333,252.267 155.600,251.600 155.600 C 250.933 155.600,250.800 155.867,250.800 157.200 C 250.800 158.533,250.667 158.800,250.000 158.800 C 249.358 158.800,249.200 159.067,249.200 160.153 C 249.200 161.170,249.001 161.559,248.400 161.716 C 247.787 161.876,247.600 162.262,247.600 163.363 C 247.600 164.533,247.452 164.800,246.800 164.800 C 246.227 164.800,246.000 165.067,246.000 165.738 C 246.000 166.254,245.640 167.002,245.200 167.400 C 244.760 167.798,244.400 168.462,244.400 168.875 C 244.400 169.287,244.148 169.722,243.839 169.840 C 243.531 169.959,243.163 170.673,243.021 171.428 C 242.868 172.244,242.528 172.800,242.182 172.800 C 241.770 172.800,241.600 173.267,241.600 174.400 C 241.600 175.733,241.467 176.000,240.800 176.000 C 240.158 176.000,240.000 176.267,240.000 177.353 C 240.000 178.370,239.801 178.759,239.200 178.916 C 238.587 179.076,238.400 179.462,238.400 180.563 C 238.400 181.733,238.252 182.000,237.600 182.000 C 236.933 182.000,236.800 182.267,236.800 183.600 C 236.800 184.933,236.667 185.200,236.000 185.200 C 235.333 185.200,235.200 185.467,235.200 186.800 C 235.200 188.133,235.067 188.400,234.400 188.400 C 233.733 188.400,233.600 188.667,233.600 190.000 C 233.600 191.333,233.467 191.600,232.800 191.600 C 232.158 191.600,232.000 191.867,232.000 192.953 C 232.000 193.970,231.801 194.359,231.200 194.516 C 230.721 194.641,230.400 195.062,230.400 195.563 C 230.400 196.029,230.142 196.400,229.818 196.400 C 229.470 196.400,229.131 196.962,228.974 197.800 C 228.829 198.570,228.477 199.200,228.191 199.200 C 227.895 199.200,227.553 199.892,227.400 200.800 C 227.244 201.725,226.906 202.400,226.600 202.400 C 226.294 202.400,225.956 203.075,225.800 204.000 C 225.634 204.984,225.312 205.600,224.965 205.600 C 224.573 205.600,224.400 206.089,224.400 207.200 C 224.400 208.533,224.267 208.800,223.600 208.800 C 222.952 208.800,222.800 209.067,222.800 210.200 C 222.800 211.333,222.648 211.600,222.000 211.600 C 221.333 211.600,221.200 211.867,221.200 213.200 C 221.200 214.533,221.067 214.800,220.400 214.800 C 219.834 214.800,219.600 215.067,219.600 215.711 C 219.600 216.212,219.240 216.930,218.800 217.307 C 218.360 217.684,218.000 218.264,218.000 218.596 C 218.000 218.928,217.640 219.560,217.200 220.000 C 216.760 220.440,216.400 221.229,216.400 221.753 C 216.400 222.370,216.118 222.781,215.600 222.916 C 214.994 223.075,214.800 223.462,214.800 224.516 C 214.800 225.570,214.606 225.957,214.000 226.116 C 213.417 226.268,213.200 226.662,213.200 227.563 C 213.200 228.354,212.999 228.800,212.643 228.800 C 211.998 228.800,211.600 229.652,211.600 231.033 C 211.600 231.593,211.365 232.000,211.043 232.000 C 210.398 232.000,210.000 232.852,210.000 234.233 C 210.000 234.826,209.768 235.200,209.400 235.200 C 209.032 235.200,208.800 235.574,208.800 236.167 C 208.800 237.548,208.402 238.400,207.757 238.400 C 207.374 238.400,207.200 238.899,207.200 240.000 C 207.200 241.333,207.067 241.600,206.400 241.600 C 205.956 241.600,205.600 241.867,205.600 242.200 C 205.600 242.530,205.240 243.160,204.800 243.600 C 204.360 244.040,204.000 244.829,204.000 245.353 C 204.000 245.970,203.718 246.381,203.200 246.516 C 202.626 246.666,202.400 247.062,202.400 247.916 C 202.400 248.770,202.174 249.166,201.600 249.316 C 200.987 249.476,200.800 249.862,200.800 250.963 C 200.800 252.133,200.652 252.400,200.000 252.400 C 199.333 252.400,199.200 252.133,199.200 250.800 C 199.200 249.467,199.067 249.200,198.400 249.200 C 197.733 249.200,197.600 248.933,197.600 247.600 C 197.600 246.267,197.467 246.000,196.800 246.000 C 196.155 246.000,196.000 245.733,196.000 244.627 C 196.000 243.605,195.795 243.189,195.200 243.000 C 194.605 242.811,194.400 242.395,194.400 241.373 C 194.400 240.267,194.245 240.000,193.600 240.000 C 192.933 240.000,192.800 239.733,192.800 238.400 C 192.800 237.301,192.626 236.800,192.245 236.800 C 191.925 236.800,191.576 236.197,191.422 235.379 C 191.276 234.597,190.907 233.862,190.602 233.746 C 190.298 233.629,189.931 232.996,189.787 232.340 C 189.643 231.683,189.272 231.049,188.962 230.930 C 188.653 230.812,188.400 230.357,188.400 229.920 C 188.400 229.462,188.061 229.037,187.600 228.916 C 187.006 228.761,186.800 228.370,186.800 227.400 C 186.800 226.430,186.594 226.039,186.000 225.884 C 185.387 225.724,185.200 225.338,185.200 224.237 C 185.200 223.067,185.052 222.800,184.400 222.800 C 183.733 222.800,183.600 222.533,183.600 221.200 C 183.600 219.867,183.467 219.600,182.800 219.600 C 182.148 219.600,182.000 219.333,182.000 218.163 C 182.000 217.062,181.813 216.676,181.200 216.516 C 180.603 216.360,180.400 215.970,180.400 214.980 C 180.400 214.005,180.188 213.587,179.600 213.400 C 179.032 213.220,178.800 212.795,178.800 211.936 C 178.800 211.062,178.578 210.667,178.000 210.516 C 177.482 210.381,177.200 209.970,177.200 209.353 C 177.200 208.829,176.840 208.040,176.400 207.600 C 175.960 207.160,175.600 206.530,175.600 206.200 C 175.600 205.870,175.330 205.600,175.000 205.600 C 174.578 205.600,174.400 205.174,174.400 204.163 C 174.400 203.062,174.213 202.676,173.600 202.516 C 172.994 202.357,172.800 201.970,172.800 200.916 C 172.800 199.862,172.606 199.475,172.000 199.316 C 171.394 199.157,171.200 198.770,171.200 197.716 C 171.200 196.675,171.004 196.274,170.422 196.122 C 169.902 195.986,169.604 195.507,169.522 194.675 C 169.430 193.741,169.151 193.363,168.400 193.156 C 167.169 192.816,98.153 192.716,96.900 193.052 C 95.610 193.398,95.518 197.600,96.800 197.600 C 97.467 197.600,97.600 197.867,97.600 199.200 C 97.600 200.533,97.733 200.800,98.400 200.800 C 99.052 200.800,99.200 201.067,99.200 202.237 C 99.200 203.338,99.387 203.724,100.000 203.884 C 100.597 204.040,100.800 204.430,100.800 205.420 C 100.800 206.395,101.012 206.813,101.600 207.000 C 102.195 207.189,102.400 207.605,102.400 208.627 C 102.400 209.733,102.555 210.000,103.200 210.000 C 103.852 210.000,104.000 210.267,104.000 211.437 C 104.000 212.538,104.187 212.924,104.800 213.084 C 105.397 213.240,105.600 213.630,105.600 214.620 C 105.600 215.595,105.812 216.013,106.400 216.200 C 106.840 216.340,107.200 216.778,107.200 217.173 C 107.200 217.569,107.560 218.350,108.000 218.909 C 108.440 219.469,108.800 220.213,108.800 220.563 C 108.800 220.913,109.070 221.200,109.400 221.200 C 109.800 221.200,110.000 221.600,110.000 222.397 C 110.000 223.160,110.290 223.774,110.800 224.093 C 111.296 224.403,111.600 225.026,111.600 225.734 C 111.600 226.538,111.836 226.937,112.400 227.084 C 113.006 227.243,113.200 227.630,113.200 228.684 C 113.200 229.738,113.394 230.125,114.000 230.284 C 114.606 230.443,114.800 230.830,114.800 231.884 C 114.800 232.938,114.994 233.325,115.600 233.484 C 116.197 233.640,116.400 234.030,116.400 235.020 C 116.400 235.995,116.612 236.413,117.200 236.600 C 117.768 236.780,118.000 237.205,118.000 238.064 C 118.000 238.938,118.222 239.333,118.800 239.484 C 119.317 239.619,119.600 240.030,119.600 240.643 C 119.600 241.166,119.960 241.818,120.400 242.093 C 120.840 242.368,121.200 242.999,121.200 243.496 C 121.200 244.133,121.436 244.400,122.000 244.400 C 122.667 244.400,122.800 244.667,122.800 246.000 C 122.800 247.333,122.933 247.600,123.600 247.600 C 124.267 247.600,124.400 247.867,124.400 249.200 C 124.400 250.311,124.573 250.800,124.965 250.800 C 125.312 250.800,125.634 251.416,125.800 252.400 C 125.966 253.384,126.288 254.000,126.635 254.000 C 126.972 254.000,127.200 254.406,127.200 255.004 C 127.200 255.556,127.560 256.316,128.000 256.693 C 128.440 257.070,128.800 257.683,128.800 258.056 C 128.800 259.138,129.243 260.000,129.798 260.000 C 130.080 260.000,130.431 260.639,130.578 261.421 C 130.724 262.203,131.104 262.942,131.422 263.064 C 131.740 263.186,132.000 263.598,132.000 263.981 C 132.000 264.363,132.360 265.002,132.800 265.400 C 133.240 265.798,133.600 266.546,133.600 267.062 C 133.600 267.733,133.827 268.000,134.400 268.000 C 135.067 268.000,135.200 268.267,135.200 269.600 C 135.200 270.933,135.333 271.200,136.000 271.200 C 136.652 271.200,136.800 271.467,136.800 272.637 C 136.800 273.738,136.987 274.124,137.600 274.284 C 138.201 274.441,138.400 274.830,138.400 275.847 C 138.400 276.933,138.558 277.200,139.200 277.200 C 139.867 277.200,140.000 277.467,140.000 278.800 C 140.000 280.133,140.133 280.400,140.800 280.400 C 141.449 280.400,141.600 280.667,141.600 281.813 C 141.600 282.672,141.825 283.312,142.176 283.446 C 142.492 283.567,142.869 284.204,143.013 284.860 C 143.157 285.517,143.528 286.151,143.838 286.270 C 144.147 286.388,144.400 286.792,144.400 287.167 C 144.400 287.542,144.760 288.236,145.200 288.708 C 145.640 289.180,146.000 289.951,146.000 290.421 C 146.000 290.938,146.315 291.357,146.800 291.484 C 147.401 291.641,147.600 292.030,147.600 293.047 C 147.600 294.133,147.758 294.400,148.400 294.400 C 149.067 294.400,149.200 294.667,149.200 296.000 C 149.200 297.333,149.333 297.600,150.000 297.600 C 150.667 297.600,150.800 297.867,150.800 299.200 C 150.800 300.533,150.933 300.800,151.600 300.800 C 152.252 300.800,152.400 301.067,152.400 302.237 C 152.400 303.338,152.587 303.724,153.200 303.884 C 153.801 304.041,154.000 304.430,154.000 305.447 C 154.000 306.533,154.158 306.800,154.800 306.800 C 155.452 306.800,155.600 307.067,155.600 308.237 C 155.600 309.338,155.787 309.724,156.400 309.884 C 156.840 309.999,157.200 310.408,157.200 310.793 C 157.200 311.177,157.560 311.950,158.000 312.509 C 158.440 313.069,158.800 313.813,158.800 314.163 C 158.800 314.513,159.070 314.800,159.400 314.800 C 159.822 314.800,160.000 315.226,160.000 316.237 C 160.000 317.338,160.187 317.724,160.800 317.884 C 161.406 318.043,161.600 318.430,161.600 319.484 C 161.600 320.538,161.794 320.925,162.400 321.084 C 162.997 321.240,163.200 321.630,163.200 322.620 C 163.200 323.595,163.412 324.013,164.000 324.200 C 164.595 324.389,164.800 324.805,164.800 325.827 C 164.800 326.933,164.955 327.200,165.600 327.200 C 166.252 327.200,166.400 327.467,166.400 328.637 C 166.400 329.738,166.587 330.124,167.200 330.284 C 167.719 330.420,168.000 330.830,168.000 331.451 C 168.000 331.977,168.360 332.716,168.800 333.093 C 169.240 333.470,169.600 334.100,169.600 334.493 C 169.600 334.886,169.960 335.516,170.400 335.893 C 170.840 336.270,171.200 336.988,171.200 337.489 C 171.200 338.133,171.434 338.400,172.000 338.400 C 172.652 338.400,172.800 338.667,172.800 339.837 C 172.800 340.938,172.987 341.324,173.600 341.484 C 174.201 341.641,174.400 342.030,174.400 343.047 C 174.400 343.946,174.590 344.400,174.965 344.400 C 175.312 344.400,175.634 345.016,175.800 346.000 C 175.966 346.984,176.288 347.600,176.635 347.600 C 176.966 347.600,177.200 348.001,177.200 348.567 C 177.200 349.948,177.598 350.800,178.243 350.800 C 178.570 350.800,178.800 351.212,178.800 351.800 C 178.800 352.350,179.160 353.160,179.600 353.600 C 180.040 354.040,180.400 354.670,180.400 355.000 C 180.400 355.330,180.760 355.960,181.200 356.400 C 181.640 356.840,182.000 357.470,182.000 357.800 C 182.000 358.130,182.360 358.760,182.800 359.200 C 183.240 359.640,183.600 360.360,183.600 360.800 C 183.600 361.333,183.867 361.600,184.400 361.600 C 185.067 361.600,185.200 361.867,185.200 363.200 C 185.200 364.533,185.333 364.800,186.000 364.800 C 186.667 364.800,186.800 365.067,186.800 366.400 C 186.800 367.733,186.933 368.000,187.600 368.000 C 188.252 368.000,188.400 368.267,188.400 369.437 C 188.400 370.538,188.587 370.924,189.200 371.084 C 189.794 371.239,190.000 371.630,190.000 372.600 C 190.000 373.570,190.206 373.961,190.800 374.116 C 191.413 374.276,191.600 374.662,191.600 375.763 C 191.600 376.722,191.785 377.200,192.155 377.200 C 192.471 377.200,192.821 377.789,192.966 378.561 C 193.107 379.310,193.487 380.024,193.811 380.149 C 194.135 380.273,194.400 380.713,194.400 381.125 C 194.400 381.538,194.760 382.202,195.200 382.600 C 195.640 382.998,196.000 383.746,196.000 384.262 C 196.000 384.933,196.227 385.200,196.800 385.200 C 197.452 385.200,197.600 385.467,197.600 386.637 C 197.600 387.721,197.790 388.125,198.372 388.277 C 198.797 388.388,199.241 388.731,199.360 389.039 C 199.956 390.593,202.400 389.447,202.400 387.614 C 202.400 387.218,202.760 386.799,203.200 386.684 C 203.806 386.525,204.000 386.138,204.000 385.084 C 204.000 384.030,204.194 383.643,204.800 383.484 C 205.406 383.325,205.600 382.938,205.600 381.884 C 205.600 380.830,205.794 380.443,206.400 380.284 C 207.013 380.124,207.200 379.738,207.200 378.637 C 207.200 377.626,207.378 377.200,207.800 377.200 C 208.219 377.200,208.400 376.778,208.400 375.800 C 208.400 374.667,208.552 374.400,209.200 374.400 C 209.766 374.400,210.000 374.133,210.000 373.489 C 210.000 372.988,210.360 372.270,210.800 371.893 C 211.240 371.516,211.600 370.777,211.600 370.251 C 211.600 369.630,211.881 369.220,212.400 369.084 C 212.974 368.934,213.200 368.538,213.200 367.684 C 213.200 366.830,213.426 366.434,214.000 366.284 C 214.606 366.125,214.800 365.738,214.800 364.684 C 214.800 363.630,214.994 363.243,215.600 363.084 C 216.213 362.924,216.400 362.538,216.400 361.437 C 216.400 360.267,216.548 360.000,217.200 360.000 C 217.845 360.000,218.000 359.733,218.000 358.627 C 218.000 357.605,218.205 357.189,218.800 357.000 C 219.388 356.813,219.600 356.395,219.600 355.420 C 219.600 354.430,219.803 354.040,220.400 353.884 C 221.006 353.725,221.200 353.338,221.200 352.284 C 221.200 351.230,221.394 350.843,222.000 350.684 C 222.613 350.524,222.800 350.138,222.800 349.037 C 222.800 347.867,222.948 347.600,223.600 347.600 C 224.177 347.600,224.400 347.333,224.400 346.643 C 224.400 346.116,224.670 345.582,225.000 345.455 C 225.343 345.324,225.600 344.727,225.600 344.059 C 225.600 343.230,225.831 342.833,226.400 342.684 C 227.013 342.524,227.200 342.138,227.200 341.037 C 227.200 339.867,227.348 339.600,228.000 339.600 C 228.642 339.600,228.800 339.333,228.800 338.247 C 228.800 337.230,228.999 336.841,229.600 336.684 C 230.213 336.524,230.400 336.138,230.400 335.037 C 230.400 333.867,230.548 333.600,231.200 333.600 C 231.867 333.600,232.000 333.333,232.000 332.000 C 232.000 330.667,232.133 330.400,232.800 330.400 C 233.467 330.400,233.600 330.133,233.600 328.800 C 233.600 327.467,233.733 327.200,234.400 327.200 C 235.042 327.200,235.200 326.933,235.200 325.847 C 235.200 324.830,235.399 324.441,236.000 324.284 C 236.485 324.157,236.800 323.738,236.800 323.221 C 236.800 322.751,237.160 321.980,237.600 321.508 C 238.040 321.036,238.400 320.413,238.400 320.125 C 238.400 319.836,238.760 319.240,239.200 318.800 C 239.640 318.360,240.000 317.659,240.000 317.243 C 240.000 316.826,240.260 316.386,240.578 316.264 C 240.896 316.142,241.276 315.403,241.422 314.621 C 241.576 313.803,241.925 313.200,242.245 313.200 C 242.626 313.200,242.800 312.699,242.800 311.600 C 242.800 310.267,242.933 310.000,243.600 310.000 C 244.242 310.000,244.400 309.733,244.400 308.647 C 244.400 307.630,244.599 307.241,245.200 307.084 C 245.813 306.924,246.000 306.538,246.000 305.437 C 246.000 304.267,246.148 304.000,246.800 304.000 C 247.467 304.000,247.600 303.733,247.600 302.400 C 247.600 301.067,247.733 300.800,248.400 300.800 C 249.067 300.800,249.200 300.533,249.200 299.200 C 249.200 297.867,249.333 297.600,250.000 297.600 C 250.539 297.600,250.800 297.333,250.800 296.783 C 250.800 296.334,251.160 295.580,251.600 295.108 C 252.040 294.636,252.400 294.013,252.400 293.725 C 252.400 293.436,252.760 292.840,253.200 292.400 C 253.640 291.960,254.000 291.150,254.000 290.600 C 254.000 289.992,254.228 289.600,254.582 289.600 C 254.928 289.600,255.268 289.044,255.421 288.228 C 255.563 287.473,255.921 286.762,256.217 286.649 C 256.513 286.535,256.876 285.803,257.022 285.021 C 257.176 284.203,257.525 283.600,257.845 283.600 C 258.226 283.600,258.400 283.099,258.400 282.000 C 258.400 280.667,258.533 280.400,259.200 280.400 C 259.867 280.400,260.000 280.133,260.000 278.800 C 260.000 277.467,260.133 277.200,260.800 277.200 C 261.442 277.200,261.600 276.933,261.600 275.847 C 261.600 274.830,261.799 274.441,262.400 274.284 C 263.013 274.124,263.200 273.738,263.200 272.637 C 263.200 271.467,263.348 271.200,264.000 271.200 C 264.533 271.200,264.800 270.933,264.800 270.400 C 264.800 269.960,265.160 269.240,265.600 268.800 C 266.040 268.360,266.400 267.683,266.400 267.296 C 266.400 266.909,266.760 266.368,267.200 266.093 C 267.699 265.781,268.000 265.160,268.000 264.443 C 268.000 263.630,268.234 263.232,268.800 263.084 C 269.406 262.925,269.600 262.538,269.600 261.484 C 269.600 260.430,269.794 260.043,270.400 259.884 C 270.964 259.737,271.200 259.338,271.200 258.534 C 271.200 257.826,271.504 257.203,272.000 256.893 C 272.499 256.581,272.800 255.960,272.800 255.243 C 272.800 254.430,273.034 254.032,273.600 253.884 C 274.213 253.724,274.400 253.338,274.400 252.237 C 274.400 251.226,274.578 250.800,275.000 250.800 C 275.433 250.800,275.600 250.356,275.600 249.200 C 275.600 247.867,275.733 247.600,276.400 247.600 C 277.067 247.600,277.200 247.333,277.200 246.000 C 277.200 244.667,277.333 244.400,278.000 244.400 C 278.500 244.400,278.800 244.133,278.800 243.689 C 278.800 243.298,279.160 242.670,279.600 242.293 C 280.040 241.916,280.400 241.177,280.400 240.651 C 280.400 240.030,280.681 239.620,281.200 239.484 C 281.778 239.333,282.000 238.938,282.000 238.064 C 282.000 237.205,282.232 236.780,282.800 236.600 C 283.388 236.413,283.600 235.995,283.600 235.020 C 283.600 234.030,283.803 233.640,284.400 233.484 C 285.006 233.325,285.200 232.938,285.200 231.884 C 285.200 230.830,285.394 230.443,286.000 230.284 C 286.606 230.125,286.800 229.738,286.800 228.684 C 286.800 227.630,286.994 227.243,287.600 227.084 C 288.174 226.934,288.400 226.538,288.400 225.684 C 288.400 224.830,288.626 224.434,289.200 224.284 C 289.806 224.125,290.000 223.738,290.000 222.684 C 290.000 221.630,290.194 221.243,290.800 221.084 C 291.240 220.969,291.606 220.543,291.613 220.137 C 291.620 219.732,291.890 219.051,292.213 218.624 C 292.536 218.196,292.800 217.528,292.800 217.138 C 292.800 216.747,293.160 216.235,293.600 216.000 C 294.113 215.726,294.400 215.162,294.400 214.433 C 294.400 213.630,294.636 213.232,295.200 213.084 C 295.813 212.924,296.000 212.538,296.000 211.437 C 296.000 210.267,296.148 210.000,296.800 210.000 C 297.445 210.000,297.600 209.733,297.600 208.627 C 297.600 207.605,297.805 207.189,298.400 207.000 C 298.988 206.813,299.200 206.395,299.200 205.420 C 299.200 204.430,299.403 204.040,300.000 203.884 C 300.613 203.724,300.800 203.338,300.800 202.237 C 300.800 201.067,300.948 200.800,301.600 200.800 C 302.267 200.800,302.400 200.533,302.400 199.200 C 302.400 197.867,302.533 197.600,303.200 197.600 C 303.867 197.600,304.000 197.333,304.000 196.000 C 304.000 194.667,304.133 194.400,304.800 194.400 C 305.265 194.400,305.600 194.133,305.600 193.763 C 305.600 193.413,305.960 192.669,306.400 192.109 C 306.840 191.550,307.200 190.756,307.200 190.346 C 307.200 189.936,307.470 189.600,307.800 189.600 C 308.215 189.600,308.400 189.183,308.400 188.247 C 308.400 187.230,308.599 186.841,309.200 186.684 C 309.806 186.525,310.000 186.138,310.000 185.084 C 310.000 184.030,310.194 183.643,310.800 183.484 C 311.413 183.324,311.600 182.938,311.600 181.837 C 311.600 180.667,311.748 180.400,312.400 180.400 C 313.067 180.400,313.200 180.133,313.200 178.800 C 313.200 177.467,313.333 177.200,314.000 177.200 C 314.642 177.200,314.800 176.933,314.800 175.847 C 314.800 174.830,314.999 174.441,315.600 174.284 C 316.206 174.125,316.400 173.738,316.400 172.684 C 316.400 171.630,316.594 171.243,317.200 171.084 C 317.813 170.924,318.000 170.538,318.000 169.437 C 318.000 168.267,318.148 168.000,318.800 168.000 C 319.333 168.000,319.600 167.733,319.600 167.200 C 319.600 166.760,319.960 166.040,320.400 165.600 C 320.840 165.160,321.200 164.459,321.200 164.043 C 321.200 163.626,321.460 163.186,321.778 163.064 C 322.096 162.942,322.476 162.203,322.622 161.421 C 322.769 160.639,323.119 160.000,323.400 160.000 C 323.681 160.000,324.031 159.361,324.178 158.579 C 324.324 157.797,324.704 157.058,325.022 156.936 C 325.369 156.803,325.600 156.172,325.600 155.357 C 325.600 154.267,325.757 154.000,326.400 154.000 C 327.067 154.000,327.200 153.733,327.200 152.400 C 327.200 151.067,327.333 150.800,328.000 150.800 C 328.667 150.800,328.800 150.533,328.800 149.200 C 328.800 147.867,328.933 147.600,329.600 147.600 C 330.267 147.600,330.400 147.333,330.400 146.000 C 330.400 144.667,330.533 144.400,331.200 144.400 C 331.733 144.400,332.000 144.133,332.000 143.600 C 332.000 143.160,332.360 142.440,332.800 142.000 C 333.240 141.560,333.600 140.840,333.600 140.400 C 333.600 139.960,333.856 139.600,334.168 139.600 C 334.486 139.600,334.859 139.026,335.015 138.300 C 335.168 137.585,335.632 136.678,336.047 136.284 C 336.461 135.891,336.800 135.126,336.800 134.584 C 336.800 134.010,337.032 133.600,337.357 133.600 C 338.002 133.600,338.400 132.748,338.400 131.367 C 338.400 130.807,338.635 130.400,338.957 130.400 C 339.595 130.400,340.000 129.551,340.000 128.214 C 340.000 127.630,340.292 127.217,340.800 127.084 C 341.375 126.934,341.600 126.538,341.600 125.680 C 341.600 124.987,341.852 124.389,342.200 124.255 C 342.577 124.111,342.800 123.499,342.800 122.613 C 342.800 121.467,342.951 121.200,343.600 121.200 C 344.267 121.200,344.400 120.933,344.400 119.600 C 344.400 118.267,344.533 118.000,345.200 118.000 C 345.733 118.000,346.000 117.733,346.000 117.200 C 346.000 116.760,346.360 116.040,346.800 115.600 C 347.240 115.160,347.600 114.530,347.600 114.200 C 347.600 113.870,347.960 113.240,348.400 112.800 C 348.840 112.360,349.200 111.571,349.200 111.047 C 349.200 110.430,349.482 110.019,350.000 109.884 C 350.606 109.725,350.800 109.338,350.800 108.284 C 350.800 107.230,350.994 106.843,351.600 106.684 C 352.174 106.534,352.400 106.138,352.400 105.284 C 352.400 104.430,352.626 104.034,353.200 103.884 C 353.806 103.725,354.000 103.338,354.000 102.284 C 354.000 101.230,354.194 100.843,354.800 100.684 C 355.406 100.525,355.600 100.138,355.600 99.084 C 355.600 98.030,355.794 97.643,356.400 97.484 C 357.013 97.324,357.200 96.938,357.200 95.837 C 357.200 94.826,357.378 94.400,357.800 94.400 C 358.219 94.400,358.400 93.978,358.400 93.000 C 358.400 91.867,358.552 91.600,359.200 91.600 C 359.733 91.600,360.000 91.333,360.000 90.800 C 360.000 90.360,360.360 89.640,360.800 89.200 C 361.240 88.760,361.600 88.046,361.600 87.614 C 361.600 87.182,361.960 86.635,362.400 86.400 C 362.913 86.126,363.200 85.562,363.200 84.833 C 363.200 84.030,363.436 83.632,364.000 83.484 C 364.613 83.324,364.800 82.938,364.800 81.837 C 364.800 80.667,364.948 80.400,365.600 80.400 C 366.267 80.400,366.400 80.133,366.400 78.800 C 366.400 77.467,366.533 77.200,367.200 77.200 C 367.842 77.200,368.000 76.933,368.000 75.847 C 368.000 74.830,368.199 74.441,368.800 74.284 C 369.406 74.125,369.600 73.738,369.600 72.684 C 369.600 71.630,369.794 71.243,370.400 71.084 C 371.006 70.925,371.200 70.538,371.200 69.484 C 371.200 68.430,371.394 68.043,372.000 67.884 C 372.447 67.767,372.800 67.338,372.800 66.913 C 372.800 66.494,373.160 65.764,373.600 65.292 C 374.040 64.820,374.400 64.150,374.400 63.804 C 374.400 63.458,374.670 63.071,375.000 62.945 C 375.364 62.805,375.600 62.200,375.600 61.404 C 375.600 60.430,375.805 60.040,376.400 59.884 C 377.013 59.724,377.200 59.338,377.200 58.237 C 377.200 57.067,377.348 56.800,378.000 56.800 C 378.642 56.800,378.800 56.533,378.800 55.447 C 378.800 54.430,378.999 54.041,379.600 53.884 C 380.213 53.724,380.400 53.338,380.400 52.237 C 380.400 51.067,380.548 50.800,381.200 50.800 C 381.867 50.800,382.000 50.533,382.000 49.200 C 382.000 47.867,382.133 47.600,382.800 47.600 C 383.467 47.600,383.600 47.333,383.600 46.000 C 383.600 44.667,383.733 44.400,384.400 44.400 C 385.042 44.400,385.200 44.133,385.200 43.047 C 385.200 42.030,385.399 41.641,386.000 41.484 C 386.485 41.357,386.800 40.938,386.800 40.421 C 386.800 39.951,387.160 39.180,387.600 38.708 C 388.040 38.236,388.400 37.613,388.400 37.325 C 388.400 37.036,388.760 36.440,389.200 36.000 C 389.640 35.560,390.000 34.859,390.000 34.443 C 390.000 34.026,390.260 33.586,390.578 33.464 C 390.896 33.342,391.276 32.603,391.422 31.821 C 391.576 31.003,391.925 30.400,392.245 30.400 C 392.626 30.400,392.800 29.899,392.800 28.800 C 392.800 27.467,392.933 27.200,393.600 27.200 C 394.242 27.200,394.400 26.933,394.400 25.847 C 394.400 24.830,394.599 24.441,395.200 24.284 C 395.806 24.125,396.000 23.738,396.000 22.684 C 396.000 21.630,396.194 21.243,396.800 21.084 C 397.413 20.924,397.600 20.538,397.600 19.437 C 397.600 18.267,397.748 18.000,398.400 18.000 C 399.067 18.000,399.200 17.733,399.200 16.400 C 399.200 15.520,399.380 14.800,399.600 14.800 C 399.822 14.800,400.000 13.733,400.000 12.400 L 400.000 10.000 364.563 10.000 C 330.034 10.000,329.120 10.020,328.926 10.763 M82.000 164.800 C 82.000 166.133,82.133 166.400,82.800 166.400 C 83.467 166.400,83.600 166.667,83.600 168.000 C 83.600 169.333,83.733 169.600,84.400 169.600 C 85.052 169.600,85.200 169.867,85.200 171.037 C 85.200 172.115,85.391 172.525,85.963 172.674 C 86.383 172.784,86.816 173.217,86.926 173.637 C 87.120 174.380,88.037 174.400,122.763 174.400 L 158.400 174.400 158.400 171.387 C 158.400 169.193,158.250 168.317,157.847 168.163 C 157.543 168.046,157.181 167.242,157.042 166.375 C 156.891 165.430,156.571 164.800,156.242 164.800 C 155.940 164.800,155.599 164.440,155.484 164.000 C 155.277 163.207,154.938 163.200,118.637 163.200 L 82.000 163.200 82.000 164.800 M90.267 177.467 C 89.523 178.210,89.992 183.600,90.800 183.600 C 91.467 183.600,91.600 183.867,91.600 185.200 C 91.600 186.356,91.767 186.800,92.200 186.800 C 92.594 186.800,92.800 187.195,92.800 187.951 C 92.800 190.087,91.349 190.011,130.044 189.902 L 166.200 189.800 166.322 187.668 C 166.429 185.800,166.343 185.510,165.622 185.322 C 164.991 185.157,164.800 184.783,164.800 183.716 C 164.800 182.662,164.606 182.275,164.000 182.116 C 163.399 181.959,163.200 181.570,163.200 180.553 C 163.200 179.607,163.016 179.200,162.590 179.200 C 162.255 179.200,161.809 178.750,161.600 178.200 L 161.220 177.200 125.877 177.200 C 106.438 177.200,90.413 177.320,90.267 177.467 " stroke="none" fill="#8cc444" fill-rule="evenodd"></path></g></svg>