<?xml version="1.0" encoding="utf-8"?>
<!-- Generator: Adobe Illustrator 26.0.2, SVG Export Plug-In . SVG Version: 6.00 Build 0)  -->
<svg version="1.1" id="Laag_1" xmlns="http://www.w3.org/2000/svg" xmlns:xlink="http://www.w3.org/1999/xlink" x="0px" y="0px"
	 viewBox="0 0 113.4 113.4" style="enable-background:new 0 0 113.4 113.4;" xml:space="preserve">
<style type="text/css">
	.st0{fill:none;}
	.st1{fill:#FFFFFF;}
</style>
<rect width="113.4" height="113.4"/>
<g id="Kader_00000099634038319522764940000012231804975665721241_">
	<g id="Kader">
		<rect x="14.2" y="14.2" class="st0" width="85" height="85"/>
	</g>
</g>
<g id="Logo">
	<path class="st1" d="M87.9,14.2H25.5c-6.2,0-11.3,5.1-11.3,11.3v62.4c0,6.2,5.1,11.3,11.3,11.3h62.4c6.2,0,11.4-5.1,11.3-11.3V25.5
		C99.2,19.3,94.1,14.2,87.9,14.2z M90.2,72.1h-9.1l-3.4-6.9l-3.4,6.9H56.7V50c0-1.8-1.6-3.3-3.4-3.3c-1.9,0-3.4,1.5-3.4,3.3v22.1
		h-9.1V49.9c0-1.8-1.6-3.3-3.4-3.3c-1.9,0-3.4,1.5-3.4,3.3V72h-9.1V41.3H34v3.6l0,0c0.9-1.3,2-2.2,3.2-2.8c1.2-0.5,2.7-0.8,4.5-0.8
		c1.6,0,3.1,0.3,4.3,1c1.2,0.6,2.2,1.6,3,2.8c1.1-1.3,2.3-2.2,3.6-2.8s3-0.9,4.9-0.9c1.1,0,2.1,0.2,3.1,0.5s1.8,0.7,2.6,1.3
		c0.7,0.6,1.3,1.2,1.8,2s0.9,2.2,0.9,3.2v22.4L73,56.9l-8-15.6h9.1l3.4,6.9l3.4-6.9H90l-7.8,15.4L90.2,72.1z"/>
</g>
</svg>
