<svg viewBox="0 0 60 55" version="1.1" xmlns="http://www.w3.org/2000/svg" xmlns:xlink="http://www.w3.org/1999/xlink">
  <defs>
    <filter x="-1.3%" y="-3.3%" width="102.6%" height="113.3%" filterUnits="objectBoundingBox" id="filter-1">
      <feOffset dx="0" dy="2" in="SourceAlpha" result="shadowOffsetOuter1"></feOffset>
      <feGaussianBlur stdDeviation="0.5" in="shadowOffsetOuter1" result="shadowBlurOuter1"></feGaussianBlur>
      <feColorMatrix values="0 0 0 0 0   0 0 0 0 0   0 0 0 0 0  0 0 0 0.2 0" type="matrix" in="shadowBlurOuter1" result="shadowMatrixOuter1"></feColorMatrix>
      <feMerge>
        <feMergeNode in="shadowMatrixOuter1"></feMergeNode>
        <feMergeNode in="SourceGraphic"></feMergeNode>
      </feMerge>
    </filter>
    <polygon id="path-4" points="0.000538670812 45 51.8341376 45 51.8341376 0.00018 0.000538670812 0.00018"></polygon>
  </defs>
  <rect width="60" height="55" fill="#FFC425" rx="5"></rect>
  <g transform="translate(4.1, 6)">
    <g transform="translate(-102, -382)">
      <g id="Logo" filter="url(#filter-1)" transform="translate(102, 382)">
        <path d="M48.4038818,0.43245 L31.8137186,0.43245 C31.8137186,0.43245 27.6623622,7.65405 25.9197621,10.68975 C24.1861399,7.64505 20.078775,0.43245 20.078775,0.43245 L0.63904314,0.43245 L26.0023583,44.47395 L51.3692647,0.43245 L48.4038818,0.43245 Z" id="Fill-17" fill="#FEFEFE"></path>
        <path d="M10.8336576,14.7402 L25.9164403,40.9284 L32.6848391,29.1771 C30.8291182,26.8956 24.4880649,20.1411 10.8336576,14.7402" id="Fill-19" fill="#221E1F"></path>
        <path d="M10.4102623,14.00625 L10.8340167,14.73975 C24.488424,20.14065 30.8294773,26.89515 32.6851982,29.17665 L36.6982958,22.21065 C28.9935076,16.72425 13.8757112,14.46345 10.4102623,14.00625" id="Fill-21" fill="#FEFEFE"></path>
        <path d="M25.9285604,13.85595 C25.9070136,13.89105 25.8728978,13.90635 25.8289063,13.90635 C25.7831193,13.90635 25.7445146,13.88385 25.7247633,13.84605 L18.9976627,2.03535 L3.51716129,2.03535 L10.4103521,14.00625 C13.875801,14.46345 28.9935974,16.72425 36.6983855,22.21065 L48.3166172,2.03535 L32.7176082,2.03535 L25.9285604,13.85595 Z" id="Fill-23" fill="#045D30"></path>
        <path d="M48.3166172,0.85698 L50.3509973,0.85698 C49.6426452,2.08908 26.6243436,42.05268 25.9159914,43.28298 C25.2067415,42.05088 2.19203109,2.08908 1.48278119,0.85698 L19.679979,0.85698 C19.9169942,1.27368 25.8289063,11.66058 25.8289063,11.66058 C25.8289063,11.66058 31.8009701,1.27008 32.0379852,0.85698 L48.3166172,0.85698 Z M51.0925674,0.00018 L31.5442037,0.00018 C31.5442037,0.00018 26.4887781,8.79408 25.8333953,9.93438 C25.1833991,8.79318 20.1773517,0.00018 20.1773517,0.00018 L0.000538670812,0.00018 L25.9159914,45.00018 L51.8341376,0.00018 L51.0925674,0.00018 Z" id="Fill-25" fill="#231F20" mask="url(#mask-5)"></path>
      </g>
    </g>
  </g>
</svg>
